<svg xmlns="http://www.w3.org/2000/svg" version="1.1" xmlns:xlink="http://www.w3.org/1999/xlink" xmlns:svgjs="http://svgjs.com/svgjs" width="2560" height="2560" preserveAspectRatio="none" viewBox="0 0 2560 2560"><g mask="url(&quot;#SvgjsMask2538&quot;)" fill="none"><rect width="2560" height="2560" x="0" y="0" fill="url(#SvgjsLinearGradient2539)"></rect><path d="M99.68 291.74L164.64 329.24L164.64 404.24L99.68 441.74L34.73 404.24L34.73 329.24zM99.68 516.74L164.64 554.24L164.64 629.24L99.68 666.74L34.73 629.24L34.73 554.24zM34.73 629.24L99.68 666.74L99.68 741.74L34.73 779.24L-30.22 741.74L-30.22 666.74zM99.68 966.74L164.64 1004.24L164.64 1079.24L99.68 1116.74L34.73 1079.24L34.73 1004.24zM34.73 1304.24L99.68 1341.74L99.68 1416.74L34.73 1454.24L-30.22 1416.74L-30.22 1341.74zM34.73 1529.24L99.68 1566.74L99.68 1641.74L34.73 1679.24L-30.22 1641.74L-30.22 1566.74zM34.73 1979.24L99.68 2016.74L99.68 2091.74L34.73 2129.24L-30.22 2091.74L-30.22 2016.74zM34.73 2204.24L99.68 2241.74L99.68 2316.74L34.73 2354.24L-30.22 2316.74L-30.22 2241.74zM229.59 66.74L294.55 104.24L294.55 179.24L229.59 216.74L164.64 179.24L164.64 104.24zM164.64 404.24L229.59 441.74L229.59 516.74L164.64 554.24L99.68 516.74L99.68 441.74zM229.59 966.74L294.55 1004.24L294.55 1079.24L229.59 1116.74L164.64 1079.24L164.64 1004.24zM164.64 1079.24L229.59 1116.74L229.59 1191.74L164.64 1229.24L99.68 1191.74L99.68 1116.74zM229.59 1191.74L294.55 1229.24L294.55 1304.24L229.59 1341.74L164.64 1304.24L164.64 1229.24zM229.59 1416.74L294.55 1454.24L294.55 1529.24L229.59 1566.74L164.64 1529.24L164.64 1454.24zM229.59 1641.74L294.55 1679.24L294.55 1754.24L229.59 1791.74L164.64 1754.24L164.64 1679.24zM164.64 1979.24L229.59 2016.74L229.59 2091.74L164.64 2129.24L99.68 2091.74L99.68 2016.74zM164.64 2429.24L229.59 2466.74L229.59 2541.74L164.64 2579.24L99.68 2541.74L99.68 2466.74zM294.55 -45.76L359.5 -8.26L359.5 66.74L294.55 104.24L229.59 66.74L229.59 -8.26zM294.55 179.24L359.5 216.74L359.5 291.74L294.55 329.24L229.59 291.74L229.59 216.74zM359.5 741.74L424.45 779.24L424.45 854.24L359.5 891.74L294.55 854.24L294.55 779.24zM294.55 854.24L359.5 891.74L359.5 966.74L294.55 1004.24L229.59 966.74L229.59 891.74zM294.55 1079.24L359.5 1116.74L359.5 1191.74L294.55 1229.24L229.59 1191.74L229.59 1116.74zM359.5 1416.74L424.45 1454.24L424.45 1529.24L359.5 1566.74L294.55 1529.24L294.55 1454.24zM294.55 1979.24L359.5 2016.74L359.5 2091.74L294.55 2129.24L229.59 2091.74L229.59 2016.74zM359.5 2316.74L424.45 2354.24L424.45 2429.24L359.5 2466.74L294.55 2429.24L294.55 2354.24zM359.5 2541.74L424.45 2579.24L424.45 2654.24L359.5 2691.74L294.55 2654.24L294.55 2579.24zM489.41 291.74L554.36 329.24L554.36 404.24L489.41 441.74L424.45 404.24L424.45 329.24zM489.41 516.74L554.36 554.24L554.36 629.24L489.41 666.74L424.45 629.24L424.45 554.24zM424.45 629.24L489.41 666.74L489.41 741.74L424.45 779.24L359.5 741.74L359.5 666.74zM424.45 854.24L489.41 891.74L489.41 966.74L424.45 1004.24L359.5 966.74L359.5 891.74zM489.41 966.74L554.36 1004.24L554.36 1079.24L489.41 1116.74L424.45 1079.24L424.45 1004.24zM424.45 1079.24L489.41 1116.74L489.41 1191.74L424.45 1229.24L359.5 1191.74L359.5 1116.74zM489.41 1191.74L554.36 1229.24L554.36 1304.24L489.41 1341.74L424.45 1304.24L424.45 1229.24zM489.41 1416.74L554.36 1454.24L554.36 1529.24L489.41 1566.74L424.45 1529.24L424.45 1454.24zM424.45 1529.24L489.41 1566.74L489.41 1641.74L424.45 1679.24L359.5 1641.74L359.5 1566.74zM489.41 1641.74L554.36 1679.24L554.36 1754.24L489.41 1791.74L424.45 1754.24L424.45 1679.24zM554.36 179.24L619.31 216.74L619.31 291.74L554.36 329.24L489.41 291.74L489.41 216.74zM619.31 516.74L684.27 554.24L684.27 629.24L619.31 666.74L554.36 629.24L554.36 554.24zM619.31 741.74L684.27 779.24L684.27 854.24L619.31 891.74L554.36 854.24L554.36 779.24zM619.31 1641.74L684.27 1679.24L684.27 1754.24L619.31 1791.74L554.36 1754.24L554.36 1679.24zM619.31 2541.74L684.27 2579.24L684.27 2654.24L619.31 2691.74L554.36 2654.24L554.36 2579.24zM749.22 291.74L814.18 329.24L814.18 404.24L749.22 441.74L684.27 404.24L684.27 329.24zM749.22 741.74L814.18 779.24L814.18 854.24L749.22 891.74L684.27 854.24L684.27 779.24zM684.27 1304.24L749.22 1341.74L749.22 1416.74L684.27 1454.24L619.31 1416.74L619.31 1341.74zM684.27 1529.24L749.22 1566.74L749.22 1641.74L684.27 1679.24L619.31 1641.74L619.31 1566.74zM749.22 2091.74L814.18 2129.24L814.18 2204.24L749.22 2241.74L684.27 2204.24L684.27 2129.24zM684.27 2429.24L749.22 2466.74L749.22 2541.74L684.27 2579.24L619.31 2541.74L619.31 2466.74zM814.17 -45.76L879.13 -8.26L879.13 66.74L814.17 104.24L749.22 66.74L749.22 -8.26zM814.17 179.24L879.13 216.74L879.13 291.74L814.17 329.24L749.22 291.74L749.22 216.74zM879.13 516.74L944.08 554.24L944.08 629.24L879.13 666.74L814.17 629.24L814.17 554.24zM814.17 629.24L879.13 666.74L879.13 741.74L814.17 779.24L749.22 741.74L749.22 666.74zM879.13 966.74L944.08 1004.24L944.08 1079.24L879.13 1116.74L814.17 1079.24L814.17 1004.24zM879.13 1191.74L944.08 1229.24L944.08 1304.24L879.13 1341.74L814.17 1304.24L814.17 1229.24zM879.13 1866.74L944.08 1904.24L944.08 1979.24L879.13 2016.74L814.17 1979.24L814.17 1904.24zM814.17 2429.24L879.13 2466.74L879.13 2541.74L814.17 2579.24L749.22 2541.74L749.22 2466.74zM944.08 -45.76L1009.04 -8.26L1009.04 66.74L944.08 104.24L879.13 66.74L879.13 -8.26zM944.08 404.24L1009.04 441.74L1009.04 516.74L944.08 554.24L879.13 516.74L879.13 441.74zM1009.04 741.74L1073.99 779.24L1073.99 854.24L1009.04 891.74L944.08 854.24L944.08 779.24zM1009.04 1191.74L1073.99 1229.24L1073.99 1304.24L1009.04 1341.74L944.08 1304.24L944.08 1229.24zM1009.04 1866.74L1073.99 1904.24L1073.99 1979.24L1009.04 2016.74L944.08 1979.24L944.08 1904.24zM1009.04 2091.74L1073.99 2129.24L1073.99 2204.24L1009.04 2241.74L944.08 2204.24L944.08 2129.24zM944.08 2204.24L1009.04 2241.74L1009.04 2316.74L944.08 2354.24L879.13 2316.74L879.13 2241.74zM1009.04 2316.74L1073.99 2354.24L1073.99 2429.24L1009.04 2466.74L944.08 2429.24L944.08 2354.24zM1073.99 -45.76L1138.94 -8.26L1138.94 66.74L1073.99 104.24L1009.04 66.74L1009.04 -8.26zM1073.99 629.24L1138.94 666.74L1138.94 741.74L1073.99 779.24L1009.04 741.74L1009.04 666.74zM1073.99 1979.24L1138.94 2016.74L1138.94 2091.74L1073.99 2129.24L1009.04 2091.74L1009.04 2016.74zM1268.85 291.74L1333.8 329.24L1333.8 404.24L1268.85 441.74L1203.9 404.24L1203.9 329.24zM1203.9 629.24L1268.85 666.74L1268.85 741.74L1203.9 779.24L1138.94 741.74L1138.94 666.74zM1203.9 1079.24L1268.85 1116.74L1268.85 1191.74L1203.9 1229.24L1138.94 1191.74L1138.94 1116.74zM1268.85 1416.74L1333.8 1454.24L1333.8 1529.24L1268.85 1566.74L1203.9 1529.24L1203.9 1454.24zM1203.9 1979.24L1268.85 2016.74L1268.85 2091.74L1203.9 2129.24L1138.94 2091.74L1138.94 2016.74zM1268.85 2541.74L1333.8 2579.24L1333.8 2654.24L1268.85 2691.74L1203.9 2654.24L1203.9 2579.24zM1398.76 66.74L1463.71 104.24L1463.71 179.24L1398.76 216.74L1333.81 179.24L1333.81 104.24zM1398.76 291.74L1463.71 329.24L1463.71 404.24L1398.76 441.74L1333.81 404.24L1333.81 329.24zM1333.81 629.24L1398.76 666.74L1398.76 741.74L1333.81 779.24L1268.85 741.74L1268.85 666.74zM1398.76 741.74L1463.71 779.24L1463.71 854.24L1398.76 891.74L1333.81 854.24L1333.81 779.24zM1398.76 1191.74L1463.71 1229.24L1463.71 1304.24L1398.76 1341.74L1333.81 1304.24L1333.81 1229.24zM1398.76 1416.74L1463.71 1454.24L1463.71 1529.24L1398.76 1566.74L1333.81 1529.24L1333.81 1454.24zM1333.81 1754.24L1398.76 1791.74L1398.76 1866.74L1333.81 1904.24L1268.85 1866.74L1268.85 1791.74zM1333.81 2204.24L1398.76 2241.74L1398.76 2316.74L1333.81 2354.24L1268.85 2316.74L1268.85 2241.74zM1463.71 -45.76L1528.67 -8.26L1528.67 66.74L1463.71 104.24L1398.76 66.74L1398.76 -8.26zM1528.67 66.74L1593.62 104.24L1593.62 179.24L1528.67 216.74L1463.71 179.24L1463.71 104.24zM1463.71 404.24L1528.67 441.74L1528.67 516.74L1463.71 554.24L1398.76 516.74L1398.76 441.74zM1528.67 741.74L1593.62 779.24L1593.62 854.24L1528.67 891.74L1463.71 854.24L1463.71 779.24zM1528.67 966.74L1593.62 1004.24L1593.62 1079.24L1528.67 1116.74L1463.71 1079.24L1463.71 1004.24zM1528.67 1641.74L1593.62 1679.24L1593.62 1754.24L1528.67 1791.74L1463.71 1754.24L1463.71 1679.24zM1463.71 2204.24L1528.67 2241.74L1528.67 2316.74L1463.71 2354.24L1398.76 2316.74L1398.76 2241.74zM1528.67 2316.74L1593.62 2354.24L1593.62 2429.24L1528.67 2466.74L1463.71 2429.24L1463.71 2354.24zM1528.67 2541.74L1593.62 2579.24L1593.62 2654.24L1528.67 2691.74L1463.71 2654.24L1463.71 2579.24zM1593.62 -45.76L1658.57 -8.26L1658.57 66.74L1593.62 104.24L1528.67 66.74L1528.67 -8.26zM1658.57 66.74L1723.53 104.24L1723.53 179.24L1658.57 216.74L1593.62 179.24L1593.62 104.24zM1658.57 291.74L1723.53 329.24L1723.53 404.24L1658.57 441.74L1593.62 404.24L1593.62 329.24zM1593.62 404.24L1658.57 441.74L1658.57 516.74L1593.62 554.24L1528.67 516.74L1528.67 441.74zM1658.57 516.74L1723.53 554.24L1723.53 629.24L1658.57 666.74L1593.62 629.24L1593.62 554.24zM1658.57 1416.74L1723.53 1454.24L1723.53 1529.24L1658.57 1566.74L1593.62 1529.24L1593.62 1454.24zM1658.57 1641.74L1723.53 1679.24L1723.53 1754.24L1658.57 1791.74L1593.62 1754.24L1593.62 1679.24zM1593.62 1754.24L1658.57 1791.74L1658.57 1866.74L1593.62 1904.24L1528.67 1866.74L1528.67 1791.74zM1658.57 2316.74L1723.53 2354.24L1723.53 2429.24L1658.57 2466.74L1593.62 2429.24L1593.62 2354.24zM1658.57 2541.74L1723.53 2579.24L1723.53 2654.24L1658.57 2691.74L1593.62 2654.24L1593.62 2579.24zM1723.53 179.24L1788.48 216.74L1788.48 291.74L1723.53 329.24L1658.57 291.74L1658.57 216.74zM1788.48 291.74L1853.43 329.24L1853.43 404.24L1788.48 441.74L1723.53 404.24L1723.53 329.24zM1788.48 516.74L1853.43 554.24L1853.43 629.24L1788.48 666.74L1723.53 629.24L1723.53 554.24zM1723.53 1079.24L1788.48 1116.74L1788.48 1191.74L1723.53 1229.24L1658.57 1191.74L1658.57 1116.74zM1788.48 1416.74L1853.43 1454.24L1853.43 1529.24L1788.48 1566.74L1723.53 1529.24L1723.53 1454.24zM1723.53 1529.24L1788.48 1566.74L1788.48 1641.74L1723.53 1679.24L1658.57 1641.74L1658.57 1566.74zM1723.53 1754.24L1788.48 1791.74L1788.48 1866.74L1723.53 1904.24L1658.57 1866.74L1658.57 1791.74zM1788.48 1866.74L1853.43 1904.24L1853.43 1979.24L1788.48 2016.74L1723.53 1979.24L1723.53 1904.24zM1788.48 2541.74L1853.43 2579.24L1853.43 2654.24L1788.48 2691.74L1723.53 2654.24L1723.53 2579.24zM1853.43 1979.24L1918.39 2016.74L1918.39 2091.74L1853.43 2129.24L1788.48 2091.74L1788.48 2016.74zM1918.39 2316.74L1983.34 2354.24L1983.34 2429.24L1918.39 2466.74L1853.43 2429.24L1853.43 2354.24zM1853.43 2429.24L1918.39 2466.74L1918.39 2541.74L1853.43 2579.24L1788.48 2541.74L1788.48 2466.74zM2048.3 66.74L2113.25 104.24L2113.25 179.24L2048.3 216.74L1983.34 179.24L1983.34 104.24zM2048.3 291.74L2113.25 329.24L2113.25 404.24L2048.3 441.74L1983.34 404.24L1983.34 329.24zM1983.34 404.24L2048.3 441.74L2048.3 516.74L1983.34 554.24L1918.39 516.74L1918.39 441.74zM1983.34 629.24L2048.3 666.74L2048.3 741.74L1983.34 779.24L1918.39 741.74L1918.39 666.74zM1983.34 2204.24L2048.3 2241.74L2048.3 2316.74L1983.34 2354.24L1918.39 2316.74L1918.39 2241.74zM2113.25 -45.76L2178.2 -8.26L2178.2 66.74L2113.25 104.24L2048.3 66.74L2048.3 -8.26zM2178.2 291.74L2243.16 329.24L2243.16 404.24L2178.2 441.74L2113.25 404.24L2113.25 329.24zM2113.25 404.24L2178.2 441.74L2178.2 516.74L2113.25 554.24L2048.3 516.74L2048.3 441.74zM2113.25 854.24L2178.2 891.74L2178.2 966.74L2113.25 1004.24L2048.3 966.74L2048.3 891.74zM2113.25 1079.24L2178.2 1116.74L2178.2 1191.74L2113.25 1229.24L2048.3 1191.74L2048.3 1116.74zM2178.2 1191.74L2243.16 1229.24L2243.16 1304.24L2178.2 1341.74L2113.25 1304.24L2113.25 1229.24zM2113.25 1304.24L2178.2 1341.74L2178.2 1416.74L2113.25 1454.24L2048.3 1416.74L2048.3 1341.74zM2178.2 1416.74L2243.16 1454.24L2243.16 1529.24L2178.2 1566.74L2113.25 1529.24L2113.25 1454.24zM2178.2 2316.74L2243.16 2354.24L2243.16 2429.24L2178.2 2466.74L2113.25 2429.24L2113.25 2354.24zM2113.25 2429.24L2178.2 2466.74L2178.2 2541.74L2113.25 2579.24L2048.3 2541.74L2048.3 2466.74zM2243.16 -45.76L2308.11 -8.26L2308.11 66.74L2243.16 104.24L2178.2 66.74L2178.2 -8.26zM2243.16 179.24L2308.11 216.74L2308.11 291.74L2243.16 329.24L2178.2 291.74L2178.2 216.74zM2243.16 629.24L2308.11 666.74L2308.11 741.74L2243.16 779.24L2178.2 741.74L2178.2 666.74zM2243.16 854.24L2308.11 891.74L2308.11 966.74L2243.16 1004.24L2178.2 966.74L2178.2 891.74zM2308.11 966.74L2373.07 1004.24L2373.07 1079.24L2308.11 1116.74L2243.16 1079.24L2243.16 1004.24zM2243.16 1079.24L2308.11 1116.74L2308.11 1191.74L2243.16 1229.24L2178.2 1191.74L2178.2 1116.74zM2308.11 1866.74L2373.07 1904.24L2373.07 1979.24L2308.11 2016.74L2243.16 1979.24L2243.16 1904.24zM2308.11 2091.74L2373.07 2129.24L2373.07 2204.24L2308.11 2241.74L2243.16 2204.24L2243.16 2129.24zM2308.11 2316.74L2373.07 2354.24L2373.07 2429.24L2308.11 2466.74L2243.16 2429.24L2243.16 2354.24zM2243.16 2429.24L2308.11 2466.74L2308.11 2541.74L2243.16 2579.24L2178.2 2541.74L2178.2 2466.74zM2373.07 -45.76L2438.02 -8.26L2438.02 66.74L2373.07 104.24L2308.11 66.74L2308.11 -8.26zM2373.07 404.24L2438.02 441.74L2438.02 516.74L2373.07 554.24L2308.11 516.74L2308.11 441.74zM2373.07 629.24L2438.02 666.74L2438.02 741.74L2373.07 779.24L2308.11 741.74L2308.11 666.74zM2438.02 741.74L2502.97 779.24L2502.97 854.24L2438.02 891.74L2373.07 854.24L2373.07 779.24zM2373.07 854.24L2438.02 891.74L2438.02 966.74L2373.07 1004.24L2308.11 966.74L2308.11 891.74zM2373.07 1304.24L2438.02 1341.74L2438.02 1416.74L2373.07 1454.24L2308.11 1416.74L2308.11 1341.74zM2373.07 1979.24L2438.02 2016.74L2438.02 2091.74L2373.07 2129.24L2308.11 2091.74L2308.11 2016.74zM2438.02 2316.74L2502.97 2354.24L2502.97 2429.24L2438.02 2466.74L2373.07 2429.24L2373.07 2354.24zM2502.97 404.24L2567.93 441.74L2567.93 516.74L2502.97 554.24L2438.02 516.74L2438.02 441.74zM2502.97 629.24L2567.93 666.74L2567.93 741.74L2502.97 779.24L2438.02 741.74L2438.02 666.74zM2502.97 854.24L2567.93 891.74L2567.93 966.74L2502.97 1004.24L2438.02 966.74L2438.02 891.74zM2502.97 1079.24L2567.93 1116.74L2567.93 1191.74L2502.97 1229.24L2438.02 1191.74L2438.02 1116.74zM2502.97 1529.24L2567.93 1566.74L2567.93 1641.74L2502.97 1679.24L2438.02 1641.74L2438.02 1566.74zM2502.97 1754.24L2567.93 1791.74L2567.93 1866.74L2502.97 1904.24L2438.02 1866.74L2438.02 1791.74zM2567.93 2091.74L2632.88 2129.24L2632.88 2204.24L2567.93 2241.74L2502.97 2204.24L2502.97 2129.24z" stroke="rgba(35, 35, 35, 1)" stroke-width="2"></path><path d="M92.18 291.74 a7.5 7.5 0 1 0 15 0 a7.5 7.5 0 1 0 -15 0zM157.14 329.24 a7.5 7.5 0 1 0 15 0 a7.5 7.5 0 1 0 -15 0zM157.14 404.24 a7.5 7.5 0 1 0 15 0 a7.5 7.5 0 1 0 -15 0zM92.18 441.74 a7.5 7.5 0 1 0 15 0 a7.5 7.5 0 1 0 -15 0zM27.23 404.24 a7.5 7.5 0 1 0 15 0 a7.5 7.5 0 1 0 -15 0zM27.23 329.24 a7.5 7.5 0 1 0 15 0 a7.5 7.5 0 1 0 -15 0zM92.18 516.74 a7.5 7.5 0 1 0 15 0 a7.5 7.5 0 1 0 -15 0zM157.14 554.24 a7.5 7.5 0 1 0 15 0 a7.5 7.5 0 1 0 -15 0zM157.14 629.24 a7.5 7.5 0 1 0 15 0 a7.5 7.5 0 1 0 -15 0zM92.18 666.74 a7.5 7.5 0 1 0 15 0 a7.5 7.5 0 1 0 -15 0zM27.23 629.24 a7.5 7.5 0 1 0 15 0 a7.5 7.5 0 1 0 -15 0zM27.23 554.24 a7.5 7.5 0 1 0 15 0 a7.5 7.5 0 1 0 -15 0zM92.18 741.74 a7.5 7.5 0 1 0 15 0 a7.5 7.5 0 1 0 -15 0zM27.23 779.24 a7.5 7.5 0 1 0 15 0 a7.5 7.5 0 1 0 -15 0zM-37.72 741.74 a7.5 7.5 0 1 0 15 0 a7.5 7.5 0 1 0 -15 0zM-37.72 666.74 a7.5 7.5 0 1 0 15 0 a7.5 7.5 0 1 0 -15 0zM92.18 966.74 a7.5 7.5 0 1 0 15 0 a7.5 7.5 0 1 0 -15 0zM157.14 1004.24 a7.5 7.5 0 1 0 15 0 a7.5 7.5 0 1 0 -15 0zM157.14 1079.24 a7.5 7.5 0 1 0 15 0 a7.5 7.5 0 1 0 -15 0zM92.18 1116.74 a7.5 7.5 0 1 0 15 0 a7.5 7.5 0 1 0 -15 0zM27.23 1079.24 a7.5 7.5 0 1 0 15 0 a7.5 7.5 0 1 0 -15 0zM27.23 1004.24 a7.5 7.5 0 1 0 15 0 a7.5 7.5 0 1 0 -15 0zM27.23 1304.24 a7.5 7.5 0 1 0 15 0 a7.5 7.5 0 1 0 -15 0zM92.18 1341.74 a7.5 7.5 0 1 0 15 0 a7.5 7.5 0 1 0 -15 0zM92.18 1416.74 a7.5 7.5 0 1 0 15 0 a7.5 7.5 0 1 0 -15 0zM27.23 1454.24 a7.5 7.5 0 1 0 15 0 a7.5 7.5 0 1 0 -15 0zM-37.72 1416.74 a7.5 7.5 0 1 0 15 0 a7.5 7.5 0 1 0 -15 0zM-37.72 1341.74 a7.5 7.5 0 1 0 15 0 a7.5 7.5 0 1 0 -15 0zM27.23 1529.24 a7.5 7.5 0 1 0 15 0 a7.5 7.5 0 1 0 -15 0zM92.18 1566.74 a7.5 7.5 0 1 0 15 0 a7.5 7.5 0 1 0 -15 0zM92.18 1641.74 a7.5 7.5 0 1 0 15 0 a7.5 7.5 0 1 0 -15 0zM27.23 1679.24 a7.5 7.5 0 1 0 15 0 a7.5 7.5 0 1 0 -15 0zM-37.72 1641.74 a7.5 7.5 0 1 0 15 0 a7.5 7.5 0 1 0 -15 0zM-37.72 1566.74 a7.5 7.5 0 1 0 15 0 a7.5 7.5 0 1 0 -15 0zM27.23 1979.24 a7.5 7.5 0 1 0 15 0 a7.5 7.5 0 1 0 -15 0zM92.18 2016.74 a7.5 7.5 0 1 0 15 0 a7.5 7.5 0 1 0 -15 0zM92.18 2091.74 a7.5 7.5 0 1 0 15 0 a7.5 7.5 0 1 0 -15 0zM27.23 2129.24 a7.5 7.5 0 1 0 15 0 a7.5 7.5 0 1 0 -15 0zM-37.72 2091.74 a7.5 7.5 0 1 0 15 0 a7.5 7.5 0 1 0 -15 0zM-37.72 2016.74 a7.5 7.5 0 1 0 15 0 a7.5 7.5 0 1 0 -15 0zM27.23 2204.24 a7.5 7.5 0 1 0 15 0 a7.5 7.5 0 1 0 -15 0zM92.18 2241.74 a7.5 7.5 0 1 0 15 0 a7.5 7.5 0 1 0 -15 0zM92.18 2316.74 a7.5 7.5 0 1 0 15 0 a7.5 7.5 0 1 0 -15 0zM27.23 2354.24 a7.5 7.5 0 1 0 15 0 a7.5 7.5 0 1 0 -15 0zM-37.72 2316.74 a7.5 7.5 0 1 0 15 0 a7.5 7.5 0 1 0 -15 0zM-37.72 2241.74 a7.5 7.5 0 1 0 15 0 a7.5 7.5 0 1 0 -15 0zM222.09 66.74 a7.5 7.5 0 1 0 15 0 a7.5 7.5 0 1 0 -15 0zM287.05 104.24 a7.5 7.5 0 1 0 15 0 a7.5 7.5 0 1 0 -15 0zM287.05 179.24 a7.5 7.5 0 1 0 15 0 a7.5 7.5 0 1 0 -15 0zM222.09 216.74 a7.5 7.5 0 1 0 15 0 a7.5 7.5 0 1 0 -15 0zM157.14 179.24 a7.5 7.5 0 1 0 15 0 a7.5 7.5 0 1 0 -15 0zM157.14 104.24 a7.5 7.5 0 1 0 15 0 a7.5 7.5 0 1 0 -15 0zM222.09 441.74 a7.5 7.5 0 1 0 15 0 a7.5 7.5 0 1 0 -15 0zM222.09 516.74 a7.5 7.5 0 1 0 15 0 a7.5 7.5 0 1 0 -15 0zM222.09 966.74 a7.5 7.5 0 1 0 15 0 a7.5 7.5 0 1 0 -15 0zM287.05 1004.24 a7.5 7.5 0 1 0 15 0 a7.5 7.5 0 1 0 -15 0zM287.05 1079.24 a7.5 7.5 0 1 0 15 0 a7.5 7.5 0 1 0 -15 0zM222.09 1116.74 a7.5 7.5 0 1 0 15 0 a7.5 7.5 0 1 0 -15 0zM222.09 1191.74 a7.5 7.5 0 1 0 15 0 a7.5 7.5 0 1 0 -15 0zM157.14 1229.24 a7.5 7.5 0 1 0 15 0 a7.5 7.5 0 1 0 -15 0zM92.18 1191.74 a7.5 7.5 0 1 0 15 0 a7.5 7.5 0 1 0 -15 0zM287.05 1229.24 a7.5 7.5 0 1 0 15 0 a7.5 7.5 0 1 0 -15 0zM287.05 1304.24 a7.5 7.5 0 1 0 15 0 a7.5 7.5 0 1 0 -15 0zM222.09 1341.74 a7.5 7.5 0 1 0 15 0 a7.5 7.5 0 1 0 -15 0zM157.14 1304.24 a7.5 7.5 0 1 0 15 0 a7.5 7.5 0 1 0 -15 0zM222.09 1416.74 a7.5 7.5 0 1 0 15 0 a7.5 7.5 0 1 0 -15 0zM287.05 1454.24 a7.5 7.5 0 1 0 15 0 a7.5 7.5 0 1 0 -15 0zM287.05 1529.24 a7.5 7.5 0 1 0 15 0 a7.5 7.5 0 1 0 -15 0zM222.09 1566.74 a7.5 7.5 0 1 0 15 0 a7.5 7.5 0 1 0 -15 0zM157.14 1529.24 a7.5 7.5 0 1 0 15 0 a7.5 7.5 0 1 0 -15 0zM157.14 1454.24 a7.5 7.5 0 1 0 15 0 a7.5 7.5 0 1 0 -15 0zM222.09 1641.74 a7.5 7.5 0 1 0 15 0 a7.5 7.5 0 1 0 -15 0zM287.05 1679.24 a7.5 7.5 0 1 0 15 0 a7.5 7.5 0 1 0 -15 0zM287.05 1754.24 a7.5 7.5 0 1 0 15 0 a7.5 7.5 0 1 0 -15 0zM222.09 1791.74 a7.5 7.5 0 1 0 15 0 a7.5 7.5 0 1 0 -15 0zM157.14 1754.24 a7.5 7.5 0 1 0 15 0 a7.5 7.5 0 1 0 -15 0zM157.14 1679.24 a7.5 7.5 0 1 0 15 0 a7.5 7.5 0 1 0 -15 0zM157.14 1979.24 a7.5 7.5 0 1 0 15 0 a7.5 7.5 0 1 0 -15 0zM222.09 2016.74 a7.5 7.5 0 1 0 15 0 a7.5 7.5 0 1 0 -15 0zM222.09 2091.74 a7.5 7.5 0 1 0 15 0 a7.5 7.5 0 1 0 -15 0zM157.14 2129.24 a7.5 7.5 0 1 0 15 0 a7.5 7.5 0 1 0 -15 0zM157.14 2429.24 a7.5 7.5 0 1 0 15 0 a7.5 7.5 0 1 0 -15 0zM222.09 2466.74 a7.5 7.5 0 1 0 15 0 a7.5 7.5 0 1 0 -15 0zM222.09 2541.74 a7.5 7.5 0 1 0 15 0 a7.5 7.5 0 1 0 -15 0zM157.14 2579.24 a7.5 7.5 0 1 0 15 0 a7.5 7.5 0 1 0 -15 0zM92.18 2541.74 a7.5 7.5 0 1 0 15 0 a7.5 7.5 0 1 0 -15 0zM92.18 2466.74 a7.5 7.5 0 1 0 15 0 a7.5 7.5 0 1 0 -15 0zM287.05 -45.76 a7.5 7.5 0 1 0 15 0 a7.5 7.5 0 1 0 -15 0zM352 -8.26 a7.5 7.5 0 1 0 15 0 a7.5 7.5 0 1 0 -15 0zM352 66.74 a7.5 7.5 0 1 0 15 0 a7.5 7.5 0 1 0 -15 0zM222.09 -8.26 a7.5 7.5 0 1 0 15 0 a7.5 7.5 0 1 0 -15 0zM352 216.74 a7.5 7.5 0 1 0 15 0 a7.5 7.5 0 1 0 -15 0zM352 291.74 a7.5 7.5 0 1 0 15 0 a7.5 7.5 0 1 0 -15 0zM287.05 329.24 a7.5 7.5 0 1 0 15 0 a7.5 7.5 0 1 0 -15 0zM222.09 291.74 a7.5 7.5 0 1 0 15 0 a7.5 7.5 0 1 0 -15 0zM352 741.74 a7.5 7.5 0 1 0 15 0 a7.5 7.5 0 1 0 -15 0zM416.95 779.24 a7.5 7.5 0 1 0 15 0 a7.5 7.5 0 1 0 -15 0zM416.95 854.24 a7.5 7.5 0 1 0 15 0 a7.5 7.5 0 1 0 -15 0zM352 891.74 a7.5 7.5 0 1 0 15 0 a7.5 7.5 0 1 0 -15 0zM287.05 854.24 a7.5 7.5 0 1 0 15 0 a7.5 7.5 0 1 0 -15 0zM287.05 779.24 a7.5 7.5 0 1 0 15 0 a7.5 7.5 0 1 0 -15 0zM352 966.74 a7.5 7.5 0 1 0 15 0 a7.5 7.5 0 1 0 -15 0zM222.09 891.74 a7.5 7.5 0 1 0 15 0 a7.5 7.5 0 1 0 -15 0zM352 1116.74 a7.5 7.5 0 1 0 15 0 a7.5 7.5 0 1 0 -15 0zM352 1191.74 a7.5 7.5 0 1 0 15 0 a7.5 7.5 0 1 0 -15 0zM352 1416.74 a7.5 7.5 0 1 0 15 0 a7.5 7.5 0 1 0 -15 0zM416.95 1454.24 a7.5 7.5 0 1 0 15 0 a7.5 7.5 0 1 0 -15 0zM416.95 1529.24 a7.5 7.5 0 1 0 15 0 a7.5 7.5 0 1 0 -15 0zM352 1566.74 a7.5 7.5 0 1 0 15 0 a7.5 7.5 0 1 0 -15 0zM287.05 1979.24 a7.5 7.5 0 1 0 15 0 a7.5 7.5 0 1 0 -15 0zM352 2016.74 a7.5 7.5 0 1 0 15 0 a7.5 7.5 0 1 0 -15 0zM352 2091.74 a7.5 7.5 0 1 0 15 0 a7.5 7.5 0 1 0 -15 0zM287.05 2129.24 a7.5 7.5 0 1 0 15 0 a7.5 7.5 0 1 0 -15 0zM352 2316.74 a7.5 7.5 0 1 0 15 0 a7.5 7.5 0 1 0 -15 0zM416.95 2354.24 a7.5 7.5 0 1 0 15 0 a7.5 7.5 0 1 0 -15 0zM416.95 2429.24 a7.5 7.5 0 1 0 15 0 a7.5 7.5 0 1 0 -15 0zM352 2466.74 a7.5 7.5 0 1 0 15 0 a7.5 7.5 0 1 0 -15 0zM287.05 2429.24 a7.5 7.5 0 1 0 15 0 a7.5 7.5 0 1 0 -15 0zM287.05 2354.24 a7.5 7.5 0 1 0 15 0 a7.5 7.5 0 1 0 -15 0zM352 2541.74 a7.5 7.5 0 1 0 15 0 a7.5 7.5 0 1 0 -15 0zM416.95 2579.24 a7.5 7.5 0 1 0 15 0 a7.5 7.5 0 1 0 -15 0zM416.95 2654.24 a7.5 7.5 0 1 0 15 0 a7.5 7.5 0 1 0 -15 0zM352 2691.74 a7.5 7.5 0 1 0 15 0 a7.5 7.5 0 1 0 -15 0zM287.05 2654.24 a7.5 7.5 0 1 0 15 0 a7.5 7.5 0 1 0 -15 0zM287.05 2579.24 a7.5 7.5 0 1 0 15 0 a7.5 7.5 0 1 0 -15 0zM481.91 291.74 a7.5 7.5 0 1 0 15 0 a7.5 7.5 0 1 0 -15 0zM546.86 329.24 a7.5 7.5 0 1 0 15 0 a7.5 7.5 0 1 0 -15 0zM546.86 404.24 a7.5 7.5 0 1 0 15 0 a7.5 7.5 0 1 0 -15 0zM481.91 441.74 a7.5 7.5 0 1 0 15 0 a7.5 7.5 0 1 0 -15 0zM416.95 404.24 a7.5 7.5 0 1 0 15 0 a7.5 7.5 0 1 0 -15 0zM416.95 329.24 a7.5 7.5 0 1 0 15 0 a7.5 7.5 0 1 0 -15 0zM481.91 516.74 a7.5 7.5 0 1 0 15 0 a7.5 7.5 0 1 0 -15 0zM546.86 554.24 a7.5 7.5 0 1 0 15 0 a7.5 7.5 0 1 0 -15 0zM546.86 629.24 a7.5 7.5 0 1 0 15 0 a7.5 7.5 0 1 0 -15 0zM481.91 666.74 a7.5 7.5 0 1 0 15 0 a7.5 7.5 0 1 0 -15 0zM416.95 629.24 a7.5 7.5 0 1 0 15 0 a7.5 7.5 0 1 0 -15 0zM416.95 554.24 a7.5 7.5 0 1 0 15 0 a7.5 7.5 0 1 0 -15 0zM481.91 741.74 a7.5 7.5 0 1 0 15 0 a7.5 7.5 0 1 0 -15 0zM352 666.74 a7.5 7.5 0 1 0 15 0 a7.5 7.5 0 1 0 -15 0zM481.91 891.74 a7.5 7.5 0 1 0 15 0 a7.5 7.5 0 1 0 -15 0zM481.91 966.74 a7.5 7.5 0 1 0 15 0 a7.5 7.5 0 1 0 -15 0zM416.95 1004.24 a7.5 7.5 0 1 0 15 0 a7.5 7.5 0 1 0 -15 0zM546.86 1004.24 a7.5 7.5 0 1 0 15 0 a7.5 7.5 0 1 0 -15 0zM546.86 1079.24 a7.5 7.5 0 1 0 15 0 a7.5 7.5 0 1 0 -15 0zM481.91 1116.74 a7.5 7.5 0 1 0 15 0 a7.5 7.5 0 1 0 -15 0zM416.95 1079.24 a7.5 7.5 0 1 0 15 0 a7.5 7.5 0 1 0 -15 0zM481.91 1191.74 a7.5 7.5 0 1 0 15 0 a7.5 7.5 0 1 0 -15 0zM416.95 1229.24 a7.5 7.5 0 1 0 15 0 a7.5 7.5 0 1 0 -15 0zM546.86 1229.24 a7.5 7.5 0 1 0 15 0 a7.5 7.5 0 1 0 -15 0zM546.86 1304.24 a7.5 7.5 0 1 0 15 0 a7.5 7.5 0 1 0 -15 0zM481.91 1341.74 a7.5 7.5 0 1 0 15 0 a7.5 7.5 0 1 0 -15 0zM416.95 1304.24 a7.5 7.5 0 1 0 15 0 a7.5 7.5 0 1 0 -15 0zM481.91 1416.74 a7.5 7.5 0 1 0 15 0 a7.5 7.5 0 1 0 -15 0zM546.86 1454.24 a7.5 7.5 0 1 0 15 0 a7.5 7.5 0 1 0 -15 0zM546.86 1529.24 a7.5 7.5 0 1 0 15 0 a7.5 7.5 0 1 0 -15 0zM481.91 1566.74 a7.5 7.5 0 1 0 15 0 a7.5 7.5 0 1 0 -15 0zM481.91 1641.74 a7.5 7.5 0 1 0 15 0 a7.5 7.5 0 1 0 -15 0zM416.95 1679.24 a7.5 7.5 0 1 0 15 0 a7.5 7.5 0 1 0 -15 0zM352 1641.74 a7.5 7.5 0 1 0 15 0 a7.5 7.5 0 1 0 -15 0zM546.86 1679.24 a7.5 7.5 0 1 0 15 0 a7.5 7.5 0 1 0 -15 0zM546.86 1754.24 a7.5 7.5 0 1 0 15 0 a7.5 7.5 0 1 0 -15 0zM481.91 1791.74 a7.5 7.5 0 1 0 15 0 a7.5 7.5 0 1 0 -15 0zM416.95 1754.24 a7.5 7.5 0 1 0 15 0 a7.5 7.5 0 1 0 -15 0zM546.86 179.24 a7.5 7.5 0 1 0 15 0 a7.5 7.5 0 1 0 -15 0zM611.81 216.74 a7.5 7.5 0 1 0 15 0 a7.5 7.5 0 1 0 -15 0zM611.81 291.74 a7.5 7.5 0 1 0 15 0 a7.5 7.5 0 1 0 -15 0zM481.91 216.74 a7.5 7.5 0 1 0 15 0 a7.5 7.5 0 1 0 -15 0zM611.81 516.74 a7.5 7.5 0 1 0 15 0 a7.5 7.5 0 1 0 -15 0zM676.77 554.24 a7.5 7.5 0 1 0 15 0 a7.5 7.5 0 1 0 -15 0zM676.77 629.24 a7.5 7.5 0 1 0 15 0 a7.5 7.5 0 1 0 -15 0zM611.81 666.74 a7.5 7.5 0 1 0 15 0 a7.5 7.5 0 1 0 -15 0zM611.81 741.74 a7.5 7.5 0 1 0 15 0 a7.5 7.5 0 1 0 -15 0zM676.77 779.24 a7.5 7.5 0 1 0 15 0 a7.5 7.5 0 1 0 -15 0zM676.77 854.24 a7.5 7.5 0 1 0 15 0 a7.5 7.5 0 1 0 -15 0zM611.81 891.74 a7.5 7.5 0 1 0 15 0 a7.5 7.5 0 1 0 -15 0zM546.86 854.24 a7.5 7.5 0 1 0 15 0 a7.5 7.5 0 1 0 -15 0zM546.86 779.24 a7.5 7.5 0 1 0 15 0 a7.5 7.5 0 1 0 -15 0zM611.81 1641.74 a7.5 7.5 0 1 0 15 0 a7.5 7.5 0 1 0 -15 0zM676.77 1679.24 a7.5 7.5 0 1 0 15 0 a7.5 7.5 0 1 0 -15 0zM676.77 1754.24 a7.5 7.5 0 1 0 15 0 a7.5 7.5 0 1 0 -15 0zM611.81 1791.74 a7.5 7.5 0 1 0 15 0 a7.5 7.5 0 1 0 -15 0zM611.81 2541.74 a7.5 7.5 0 1 0 15 0 a7.5 7.5 0 1 0 -15 0zM676.77 2579.24 a7.5 7.5 0 1 0 15 0 a7.5 7.5 0 1 0 -15 0zM676.77 2654.24 a7.5 7.5 0 1 0 15 0 a7.5 7.5 0 1 0 -15 0zM611.81 2691.74 a7.5 7.5 0 1 0 15 0 a7.5 7.5 0 1 0 -15 0zM546.86 2654.24 a7.5 7.5 0 1 0 15 0 a7.5 7.5 0 1 0 -15 0zM546.86 2579.24 a7.5 7.5 0 1 0 15 0 a7.5 7.5 0 1 0 -15 0zM741.72 291.74 a7.5 7.5 0 1 0 15 0 a7.5 7.5 0 1 0 -15 0zM806.68 329.24 a7.5 7.5 0 1 0 15 0 a7.5 7.5 0 1 0 -15 0zM806.68 404.24 a7.5 7.5 0 1 0 15 0 a7.5 7.5 0 1 0 -15 0zM741.72 441.74 a7.5 7.5 0 1 0 15 0 a7.5 7.5 0 1 0 -15 0zM676.77 404.24 a7.5 7.5 0 1 0 15 0 a7.5 7.5 0 1 0 -15 0zM676.77 329.24 a7.5 7.5 0 1 0 15 0 a7.5 7.5 0 1 0 -15 0zM741.72 741.74 a7.5 7.5 0 1 0 15 0 a7.5 7.5 0 1 0 -15 0zM806.68 779.24 a7.5 7.5 0 1 0 15 0 a7.5 7.5 0 1 0 -15 0zM806.68 854.24 a7.5 7.5 0 1 0 15 0 a7.5 7.5 0 1 0 -15 0zM741.72 891.74 a7.5 7.5 0 1 0 15 0 a7.5 7.5 0 1 0 -15 0zM676.77 1304.24 a7.5 7.5 0 1 0 15 0 a7.5 7.5 0 1 0 -15 0zM741.72 1341.74 a7.5 7.5 0 1 0 15 0 a7.5 7.5 0 1 0 -15 0zM741.72 1416.74 a7.5 7.5 0 1 0 15 0 a7.5 7.5 0 1 0 -15 0zM676.77 1454.24 a7.5 7.5 0 1 0 15 0 a7.5 7.5 0 1 0 -15 0zM611.81 1416.74 a7.5 7.5 0 1 0 15 0 a7.5 7.5 0 1 0 -15 0zM611.81 1341.74 a7.5 7.5 0 1 0 15 0 a7.5 7.5 0 1 0 -15 0zM676.77 1529.24 a7.5 7.5 0 1 0 15 0 a7.5 7.5 0 1 0 -15 0zM741.72 1566.74 a7.5 7.5 0 1 0 15 0 a7.5 7.5 0 1 0 -15 0zM741.72 1641.74 a7.5 7.5 0 1 0 15 0 a7.5 7.5 0 1 0 -15 0zM611.81 1566.74 a7.5 7.5 0 1 0 15 0 a7.5 7.5 0 1 0 -15 0zM741.72 2091.74 a7.5 7.5 0 1 0 15 0 a7.5 7.5 0 1 0 -15 0zM806.68 2129.24 a7.5 7.5 0 1 0 15 0 a7.5 7.5 0 1 0 -15 0zM806.68 2204.24 a7.5 7.5 0 1 0 15 0 a7.5 7.5 0 1 0 -15 0zM741.72 2241.74 a7.5 7.5 0 1 0 15 0 a7.5 7.5 0 1 0 -15 0zM676.77 2204.24 a7.5 7.5 0 1 0 15 0 a7.5 7.5 0 1 0 -15 0zM676.77 2129.24 a7.5 7.5 0 1 0 15 0 a7.5 7.5 0 1 0 -15 0zM676.77 2429.24 a7.5 7.5 0 1 0 15 0 a7.5 7.5 0 1 0 -15 0zM741.72 2466.74 a7.5 7.5 0 1 0 15 0 a7.5 7.5 0 1 0 -15 0zM741.72 2541.74 a7.5 7.5 0 1 0 15 0 a7.5 7.5 0 1 0 -15 0zM611.81 2466.74 a7.5 7.5 0 1 0 15 0 a7.5 7.5 0 1 0 -15 0zM806.67 -45.76 a7.5 7.5 0 1 0 15 0 a7.5 7.5 0 1 0 -15 0zM871.63 -8.26 a7.5 7.5 0 1 0 15 0 a7.5 7.5 0 1 0 -15 0zM871.63 66.74 a7.5 7.5 0 1 0 15 0 a7.5 7.5 0 1 0 -15 0zM806.67 104.24 a7.5 7.5 0 1 0 15 0 a7.5 7.5 0 1 0 -15 0zM741.72 66.74 a7.5 7.5 0 1 0 15 0 a7.5 7.5 0 1 0 -15 0zM741.72 -8.26 a7.5 7.5 0 1 0 15 0 a7.5 7.5 0 1 0 -15 0zM806.67 179.24 a7.5 7.5 0 1 0 15 0 a7.5 7.5 0 1 0 -15 0zM871.63 216.74 a7.5 7.5 0 1 0 15 0 a7.5 7.5 0 1 0 -15 0zM871.63 291.74 a7.5 7.5 0 1 0 15 0 a7.5 7.5 0 1 0 -15 0zM806.67 329.24 a7.5 7.5 0 1 0 15 0 a7.5 7.5 0 1 0 -15 0zM741.72 216.74 a7.5 7.5 0 1 0 15 0 a7.5 7.5 0 1 0 -15 0zM871.63 516.74 a7.5 7.5 0 1 0 15 0 a7.5 7.5 0 1 0 -15 0zM936.58 554.24 a7.5 7.5 0 1 0 15 0 a7.5 7.5 0 1 0 -15 0zM936.58 629.24 a7.5 7.5 0 1 0 15 0 a7.5 7.5 0 1 0 -15 0zM871.63 666.74 a7.5 7.5 0 1 0 15 0 a7.5 7.5 0 1 0 -15 0zM806.67 629.24 a7.5 7.5 0 1 0 15 0 a7.5 7.5 0 1 0 -15 0zM806.67 554.24 a7.5 7.5 0 1 0 15 0 a7.5 7.5 0 1 0 -15 0zM871.63 741.74 a7.5 7.5 0 1 0 15 0 a7.5 7.5 0 1 0 -15 0zM806.67 779.24 a7.5 7.5 0 1 0 15 0 a7.5 7.5 0 1 0 -15 0zM741.72 666.74 a7.5 7.5 0 1 0 15 0 a7.5 7.5 0 1 0 -15 0zM871.63 966.74 a7.5 7.5 0 1 0 15 0 a7.5 7.5 0 1 0 -15 0zM936.58 1004.24 a7.5 7.5 0 1 0 15 0 a7.5 7.5 0 1 0 -15 0zM936.58 1079.24 a7.5 7.5 0 1 0 15 0 a7.5 7.5 0 1 0 -15 0zM871.63 1116.74 a7.5 7.5 0 1 0 15 0 a7.5 7.5 0 1 0 -15 0zM806.67 1079.24 a7.5 7.5 0 1 0 15 0 a7.5 7.5 0 1 0 -15 0zM806.67 1004.24 a7.5 7.5 0 1 0 15 0 a7.5 7.5 0 1 0 -15 0zM871.63 1191.74 a7.5 7.5 0 1 0 15 0 a7.5 7.5 0 1 0 -15 0zM936.58 1229.24 a7.5 7.5 0 1 0 15 0 a7.5 7.5 0 1 0 -15 0zM936.58 1304.24 a7.5 7.5 0 1 0 15 0 a7.5 7.5 0 1 0 -15 0zM871.63 1341.74 a7.5 7.5 0 1 0 15 0 a7.5 7.5 0 1 0 -15 0zM806.67 1304.24 a7.5 7.5 0 1 0 15 0 a7.5 7.5 0 1 0 -15 0zM806.67 1229.24 a7.5 7.5 0 1 0 15 0 a7.5 7.5 0 1 0 -15 0zM871.63 1866.74 a7.5 7.5 0 1 0 15 0 a7.5 7.5 0 1 0 -15 0zM936.58 1904.24 a7.5 7.5 0 1 0 15 0 a7.5 7.5 0 1 0 -15 0zM936.58 1979.24 a7.5 7.5 0 1 0 15 0 a7.5 7.5 0 1 0 -15 0zM871.63 2016.74 a7.5 7.5 0 1 0 15 0 a7.5 7.5 0 1 0 -15 0zM806.67 1979.24 a7.5 7.5 0 1 0 15 0 a7.5 7.5 0 1 0 -15 0zM806.67 1904.24 a7.5 7.5 0 1 0 15 0 a7.5 7.5 0 1 0 -15 0zM806.67 2429.24 a7.5 7.5 0 1 0 15 0 a7.5 7.5 0 1 0 -15 0zM871.63 2466.74 a7.5 7.5 0 1 0 15 0 a7.5 7.5 0 1 0 -15 0zM871.63 2541.74 a7.5 7.5 0 1 0 15 0 a7.5 7.5 0 1 0 -15 0zM806.67 2579.24 a7.5 7.5 0 1 0 15 0 a7.5 7.5 0 1 0 -15 0zM936.58 -45.76 a7.5 7.5 0 1 0 15 0 a7.5 7.5 0 1 0 -15 0zM1001.54 -8.26 a7.5 7.5 0 1 0 15 0 a7.5 7.5 0 1 0 -15 0zM1001.54 66.74 a7.5 7.5 0 1 0 15 0 a7.5 7.5 0 1 0 -15 0zM936.58 104.24 a7.5 7.5 0 1 0 15 0 a7.5 7.5 0 1 0 -15 0zM936.58 404.24 a7.5 7.5 0 1 0 15 0 a7.5 7.5 0 1 0 -15 0zM1001.54 441.74 a7.5 7.5 0 1 0 15 0 a7.5 7.5 0 1 0 -15 0zM1001.54 516.74 a7.5 7.5 0 1 0 15 0 a7.5 7.5 0 1 0 -15 0zM871.63 441.74 a7.5 7.5 0 1 0 15 0 a7.5 7.5 0 1 0 -15 0zM1001.54 741.74 a7.5 7.5 0 1 0 15 0 a7.5 7.5 0 1 0 -15 0zM1066.49 779.24 a7.5 7.5 0 1 0 15 0 a7.5 7.5 0 1 0 -15 0zM1066.49 854.24 a7.5 7.5 0 1 0 15 0 a7.5 7.5 0 1 0 -15 0zM1001.54 891.74 a7.5 7.5 0 1 0 15 0 a7.5 7.5 0 1 0 -15 0zM936.58 854.24 a7.5 7.5 0 1 0 15 0 a7.5 7.5 0 1 0 -15 0zM936.58 779.24 a7.5 7.5 0 1 0 15 0 a7.5 7.5 0 1 0 -15 0zM1001.54 1191.74 a7.5 7.5 0 1 0 15 0 a7.5 7.5 0 1 0 -15 0zM1066.49 1229.24 a7.5 7.5 0 1 0 15 0 a7.5 7.5 0 1 0 -15 0zM1066.49 1304.24 a7.5 7.5 0 1 0 15 0 a7.5 7.5 0 1 0 -15 0zM1001.54 1341.74 a7.5 7.5 0 1 0 15 0 a7.5 7.5 0 1 0 -15 0zM1001.54 1866.74 a7.5 7.5 0 1 0 15 0 a7.5 7.5 0 1 0 -15 0zM1066.49 1904.24 a7.5 7.5 0 1 0 15 0 a7.5 7.5 0 1 0 -15 0zM1066.49 1979.24 a7.5 7.5 0 1 0 15 0 a7.5 7.5 0 1 0 -15 0zM1001.54 2016.74 a7.5 7.5 0 1 0 15 0 a7.5 7.5 0 1 0 -15 0zM1001.54 2091.74 a7.5 7.5 0 1 0 15 0 a7.5 7.5 0 1 0 -15 0zM1066.49 2129.24 a7.5 7.5 0 1 0 15 0 a7.5 7.5 0 1 0 -15 0zM1066.49 2204.24 a7.5 7.5 0 1 0 15 0 a7.5 7.5 0 1 0 -15 0zM1001.54 2241.74 a7.5 7.5 0 1 0 15 0 a7.5 7.5 0 1 0 -15 0zM936.58 2204.24 a7.5 7.5 0 1 0 15 0 a7.5 7.5 0 1 0 -15 0zM936.58 2129.24 a7.5 7.5 0 1 0 15 0 a7.5 7.5 0 1 0 -15 0zM1001.54 2316.74 a7.5 7.5 0 1 0 15 0 a7.5 7.5 0 1 0 -15 0zM936.58 2354.24 a7.5 7.5 0 1 0 15 0 a7.5 7.5 0 1 0 -15 0zM871.63 2316.74 a7.5 7.5 0 1 0 15 0 a7.5 7.5 0 1 0 -15 0zM871.63 2241.74 a7.5 7.5 0 1 0 15 0 a7.5 7.5 0 1 0 -15 0zM1066.49 2354.24 a7.5 7.5 0 1 0 15 0 a7.5 7.5 0 1 0 -15 0zM1066.49 2429.24 a7.5 7.5 0 1 0 15 0 a7.5 7.5 0 1 0 -15 0zM1001.54 2466.74 a7.5 7.5 0 1 0 15 0 a7.5 7.5 0 1 0 -15 0zM936.58 2429.24 a7.5 7.5 0 1 0 15 0 a7.5 7.5 0 1 0 -15 0zM1066.49 -45.76 a7.5 7.5 0 1 0 15 0 a7.5 7.5 0 1 0 -15 0zM1131.44 -8.26 a7.5 7.5 0 1 0 15 0 a7.5 7.5 0 1 0 -15 0zM1131.44 66.74 a7.5 7.5 0 1 0 15 0 a7.5 7.5 0 1 0 -15 0zM1066.49 104.24 a7.5 7.5 0 1 0 15 0 a7.5 7.5 0 1 0 -15 0zM1066.49 629.24 a7.5 7.5 0 1 0 15 0 a7.5 7.5 0 1 0 -15 0zM1131.44 666.74 a7.5 7.5 0 1 0 15 0 a7.5 7.5 0 1 0 -15 0zM1131.44 741.74 a7.5 7.5 0 1 0 15 0 a7.5 7.5 0 1 0 -15 0zM1001.54 666.74 a7.5 7.5 0 1 0 15 0 a7.5 7.5 0 1 0 -15 0zM1131.44 2016.74 a7.5 7.5 0 1 0 15 0 a7.5 7.5 0 1 0 -15 0zM1131.44 2091.74 a7.5 7.5 0 1 0 15 0 a7.5 7.5 0 1 0 -15 0zM1261.35 291.74 a7.5 7.5 0 1 0 15 0 a7.5 7.5 0 1 0 -15 0zM1326.3 329.24 a7.5 7.5 0 1 0 15 0 a7.5 7.5 0 1 0 -15 0zM1326.3 404.24 a7.5 7.5 0 1 0 15 0 a7.5 7.5 0 1 0 -15 0zM1261.35 441.74 a7.5 7.5 0 1 0 15 0 a7.5 7.5 0 1 0 -15 0zM1196.4 404.24 a7.5 7.5 0 1 0 15 0 a7.5 7.5 0 1 0 -15 0zM1196.4 329.24 a7.5 7.5 0 1 0 15 0 a7.5 7.5 0 1 0 -15 0zM1196.4 629.24 a7.5 7.5 0 1 0 15 0 a7.5 7.5 0 1 0 -15 0zM1261.35 666.74 a7.5 7.5 0 1 0 15 0 a7.5 7.5 0 1 0 -15 0zM1261.35 741.74 a7.5 7.5 0 1 0 15 0 a7.5 7.5 0 1 0 -15 0zM1196.4 779.24 a7.5 7.5 0 1 0 15 0 a7.5 7.5 0 1 0 -15 0zM1196.4 1079.24 a7.5 7.5 0 1 0 15 0 a7.5 7.5 0 1 0 -15 0zM1261.35 1116.74 a7.5 7.5 0 1 0 15 0 a7.5 7.5 0 1 0 -15 0zM1261.35 1191.74 a7.5 7.5 0 1 0 15 0 a7.5 7.5 0 1 0 -15 0zM1196.4 1229.24 a7.5 7.5 0 1 0 15 0 a7.5 7.5 0 1 0 -15 0zM1131.44 1191.74 a7.5 7.5 0 1 0 15 0 a7.5 7.5 0 1 0 -15 0zM1131.44 1116.74 a7.5 7.5 0 1 0 15 0 a7.5 7.5 0 1 0 -15 0zM1261.35 1416.74 a7.5 7.5 0 1 0 15 0 a7.5 7.5 0 1 0 -15 0zM1326.3 1454.24 a7.5 7.5 0 1 0 15 0 a7.5 7.5 0 1 0 -15 0zM1326.3 1529.24 a7.5 7.5 0 1 0 15 0 a7.5 7.5 0 1 0 -15 0zM1261.35 1566.74 a7.5 7.5 0 1 0 15 0 a7.5 7.5 0 1 0 -15 0zM1196.4 1529.24 a7.5 7.5 0 1 0 15 0 a7.5 7.5 0 1 0 -15 0zM1196.4 1454.24 a7.5 7.5 0 1 0 15 0 a7.5 7.5 0 1 0 -15 0zM1196.4 1979.24 a7.5 7.5 0 1 0 15 0 a7.5 7.5 0 1 0 -15 0zM1261.35 2016.74 a7.5 7.5 0 1 0 15 0 a7.5 7.5 0 1 0 -15 0zM1261.35 2091.74 a7.5 7.5 0 1 0 15 0 a7.5 7.5 0 1 0 -15 0zM1196.4 2129.24 a7.5 7.5 0 1 0 15 0 a7.5 7.5 0 1 0 -15 0zM1261.35 2541.74 a7.5 7.5 0 1 0 15 0 a7.5 7.5 0 1 0 -15 0zM1326.3 2579.24 a7.5 7.5 0 1 0 15 0 a7.5 7.5 0 1 0 -15 0zM1326.3 2654.24 a7.5 7.5 0 1 0 15 0 a7.5 7.5 0 1 0 -15 0zM1261.35 2691.74 a7.5 7.5 0 1 0 15 0 a7.5 7.5 0 1 0 -15 0zM1196.4 2654.24 a7.5 7.5 0 1 0 15 0 a7.5 7.5 0 1 0 -15 0zM1196.4 2579.24 a7.5 7.5 0 1 0 15 0 a7.5 7.5 0 1 0 -15 0zM1391.26 66.74 a7.5 7.5 0 1 0 15 0 a7.5 7.5 0 1 0 -15 0zM1456.21 104.24 a7.5 7.5 0 1 0 15 0 a7.5 7.5 0 1 0 -15 0zM1456.21 179.24 a7.5 7.5 0 1 0 15 0 a7.5 7.5 0 1 0 -15 0zM1391.26 216.74 a7.5 7.5 0 1 0 15 0 a7.5 7.5 0 1 0 -15 0zM1326.31 179.24 a7.5 7.5 0 1 0 15 0 a7.5 7.5 0 1 0 -15 0zM1326.31 104.24 a7.5 7.5 0 1 0 15 0 a7.5 7.5 0 1 0 -15 0zM1391.26 291.74 a7.5 7.5 0 1 0 15 0 a7.5 7.5 0 1 0 -15 0zM1456.21 329.24 a7.5 7.5 0 1 0 15 0 a7.5 7.5 0 1 0 -15 0zM1456.21 404.24 a7.5 7.5 0 1 0 15 0 a7.5 7.5 0 1 0 -15 0zM1391.26 441.74 a7.5 7.5 0 1 0 15 0 a7.5 7.5 0 1 0 -15 0zM1326.31 404.24 a7.5 7.5 0 1 0 15 0 a7.5 7.5 0 1 0 -15 0zM1326.31 329.24 a7.5 7.5 0 1 0 15 0 a7.5 7.5 0 1 0 -15 0zM1326.31 629.24 a7.5 7.5 0 1 0 15 0 a7.5 7.5 0 1 0 -15 0zM1391.26 666.74 a7.5 7.5 0 1 0 15 0 a7.5 7.5 0 1 0 -15 0zM1391.26 741.74 a7.5 7.5 0 1 0 15 0 a7.5 7.5 0 1 0 -15 0zM1326.31 779.24 a7.5 7.5 0 1 0 15 0 a7.5 7.5 0 1 0 -15 0zM1456.21 779.24 a7.5 7.5 0 1 0 15 0 a7.5 7.5 0 1 0 -15 0zM1456.21 854.24 a7.5 7.5 0 1 0 15 0 a7.5 7.5 0 1 0 -15 0zM1391.26 891.74 a7.5 7.5 0 1 0 15 0 a7.5 7.5 0 1 0 -15 0zM1326.31 854.24 a7.5 7.5 0 1 0 15 0 a7.5 7.5 0 1 0 -15 0zM1391.26 1191.74 a7.5 7.5 0 1 0 15 0 a7.5 7.5 0 1 0 -15 0zM1456.21 1229.24 a7.5 7.5 0 1 0 15 0 a7.5 7.5 0 1 0 -15 0zM1456.21 1304.24 a7.5 7.5 0 1 0 15 0 a7.5 7.5 0 1 0 -15 0zM1391.26 1341.74 a7.5 7.5 0 1 0 15 0 a7.5 7.5 0 1 0 -15 0zM1326.31 1304.24 a7.5 7.5 0 1 0 15 0 a7.5 7.5 0 1 0 -15 0zM1326.31 1229.24 a7.5 7.5 0 1 0 15 0 a7.5 7.5 0 1 0 -15 0zM1391.26 1416.74 a7.5 7.5 0 1 0 15 0 a7.5 7.5 0 1 0 -15 0zM1456.21 1454.24 a7.5 7.5 0 1 0 15 0 a7.5 7.5 0 1 0 -15 0zM1456.21 1529.24 a7.5 7.5 0 1 0 15 0 a7.5 7.5 0 1 0 -15 0zM1391.26 1566.74 a7.5 7.5 0 1 0 15 0 a7.5 7.5 0 1 0 -15 0zM1326.31 1529.24 a7.5 7.5 0 1 0 15 0 a7.5 7.5 0 1 0 -15 0zM1326.31 1454.24 a7.5 7.5 0 1 0 15 0 a7.5 7.5 0 1 0 -15 0zM1326.31 1754.24 a7.5 7.5 0 1 0 15 0 a7.5 7.5 0 1 0 -15 0zM1391.26 1791.74 a7.5 7.5 0 1 0 15 0 a7.5 7.5 0 1 0 -15 0zM1391.26 1866.74 a7.5 7.5 0 1 0 15 0 a7.5 7.5 0 1 0 -15 0zM1326.31 1904.24 a7.5 7.5 0 1 0 15 0 a7.5 7.5 0 1 0 -15 0zM1261.35 1866.74 a7.5 7.5 0 1 0 15 0 a7.5 7.5 0 1 0 -15 0zM1261.35 1791.74 a7.5 7.5 0 1 0 15 0 a7.5 7.5 0 1 0 -15 0zM1326.31 2204.24 a7.5 7.5 0 1 0 15 0 a7.5 7.5 0 1 0 -15 0zM1391.26 2241.74 a7.5 7.5 0 1 0 15 0 a7.5 7.5 0 1 0 -15 0zM1391.26 2316.74 a7.5 7.5 0 1 0 15 0 a7.5 7.5 0 1 0 -15 0zM1326.31 2354.24 a7.5 7.5 0 1 0 15 0 a7.5 7.5 0 1 0 -15 0zM1261.35 2316.74 a7.5 7.5 0 1 0 15 0 a7.5 7.5 0 1 0 -15 0zM1261.35 2241.74 a7.5 7.5 0 1 0 15 0 a7.5 7.5 0 1 0 -15 0zM1456.21 -45.76 a7.5 7.5 0 1 0 15 0 a7.5 7.5 0 1 0 -15 0zM1521.17 -8.26 a7.5 7.5 0 1 0 15 0 a7.5 7.5 0 1 0 -15 0zM1521.17 66.74 a7.5 7.5 0 1 0 15 0 a7.5 7.5 0 1 0 -15 0zM1391.26 -8.26 a7.5 7.5 0 1 0 15 0 a7.5 7.5 0 1 0 -15 0zM1586.12 104.24 a7.5 7.5 0 1 0 15 0 a7.5 7.5 0 1 0 -15 0zM1586.12 179.24 a7.5 7.5 0 1 0 15 0 a7.5 7.5 0 1 0 -15 0zM1521.17 216.74 a7.5 7.5 0 1 0 15 0 a7.5 7.5 0 1 0 -15 0zM1521.17 441.74 a7.5 7.5 0 1 0 15 0 a7.5 7.5 0 1 0 -15 0zM1521.17 516.74 a7.5 7.5 0 1 0 15 0 a7.5 7.5 0 1 0 -15 0zM1456.21 554.24 a7.5 7.5 0 1 0 15 0 a7.5 7.5 0 1 0 -15 0zM1391.26 516.74 a7.5 7.5 0 1 0 15 0 a7.5 7.5 0 1 0 -15 0zM1521.17 741.74 a7.5 7.5 0 1 0 15 0 a7.5 7.5 0 1 0 -15 0zM1586.12 779.24 a7.5 7.5 0 1 0 15 0 a7.5 7.5 0 1 0 -15 0zM1586.12 854.24 a7.5 7.5 0 1 0 15 0 a7.5 7.5 0 1 0 -15 0zM1521.17 891.74 a7.5 7.5 0 1 0 15 0 a7.5 7.5 0 1 0 -15 0zM1521.17 966.74 a7.5 7.5 0 1 0 15 0 a7.5 7.5 0 1 0 -15 0zM1586.12 1004.24 a7.5 7.5 0 1 0 15 0 a7.5 7.5 0 1 0 -15 0zM1586.12 1079.24 a7.5 7.5 0 1 0 15 0 a7.5 7.5 0 1 0 -15 0zM1521.17 1116.74 a7.5 7.5 0 1 0 15 0 a7.5 7.5 0 1 0 -15 0zM1456.21 1079.24 a7.5 7.5 0 1 0 15 0 a7.5 7.5 0 1 0 -15 0zM1456.21 1004.24 a7.5 7.5 0 1 0 15 0 a7.5 7.5 0 1 0 -15 0zM1521.17 1641.74 a7.5 7.5 0 1 0 15 0 a7.5 7.5 0 1 0 -15 0zM1586.12 1679.24 a7.5 7.5 0 1 0 15 0 a7.5 7.5 0 1 0 -15 0zM1586.12 1754.24 a7.5 7.5 0 1 0 15 0 a7.5 7.5 0 1 0 -15 0zM1521.17 1791.74 a7.5 7.5 0 1 0 15 0 a7.5 7.5 0 1 0 -15 0zM1456.21 1754.24 a7.5 7.5 0 1 0 15 0 a7.5 7.5 0 1 0 -15 0zM1456.21 1679.24 a7.5 7.5 0 1 0 15 0 a7.5 7.5 0 1 0 -15 0zM1456.21 2204.24 a7.5 7.5 0 1 0 15 0 a7.5 7.5 0 1 0 -15 0zM1521.17 2241.74 a7.5 7.5 0 1 0 15 0 a7.5 7.5 0 1 0 -15 0zM1521.17 2316.74 a7.5 7.5 0 1 0 15 0 a7.5 7.5 0 1 0 -15 0zM1456.21 2354.24 a7.5 7.5 0 1 0 15 0 a7.5 7.5 0 1 0 -15 0zM1586.12 2354.24 a7.5 7.5 0 1 0 15 0 a7.5 7.5 0 1 0 -15 0zM1586.12 2429.24 a7.5 7.5 0 1 0 15 0 a7.5 7.5 0 1 0 -15 0zM1521.17 2466.74 a7.5 7.5 0 1 0 15 0 a7.5 7.5 0 1 0 -15 0zM1456.21 2429.24 a7.5 7.5 0 1 0 15 0 a7.5 7.5 0 1 0 -15 0zM1521.17 2541.74 a7.5 7.5 0 1 0 15 0 a7.5 7.5 0 1 0 -15 0zM1586.12 2579.24 a7.5 7.5 0 1 0 15 0 a7.5 7.5 0 1 0 -15 0zM1586.12 2654.24 a7.5 7.5 0 1 0 15 0 a7.5 7.5 0 1 0 -15 0zM1521.17 2691.74 a7.5 7.5 0 1 0 15 0 a7.5 7.5 0 1 0 -15 0zM1456.21 2654.24 a7.5 7.5 0 1 0 15 0 a7.5 7.5 0 1 0 -15 0zM1456.21 2579.24 a7.5 7.5 0 1 0 15 0 a7.5 7.5 0 1 0 -15 0zM1586.12 -45.76 a7.5 7.5 0 1 0 15 0 a7.5 7.5 0 1 0 -15 0zM1651.07 -8.26 a7.5 7.5 0 1 0 15 0 a7.5 7.5 0 1 0 -15 0zM1651.07 66.74 a7.5 7.5 0 1 0 15 0 a7.5 7.5 0 1 0 -15 0zM1716.03 104.24 a7.5 7.5 0 1 0 15 0 a7.5 7.5 0 1 0 -15 0zM1716.03 179.24 a7.5 7.5 0 1 0 15 0 a7.5 7.5 0 1 0 -15 0zM1651.07 216.74 a7.5 7.5 0 1 0 15 0 a7.5 7.5 0 1 0 -15 0zM1651.07 291.74 a7.5 7.5 0 1 0 15 0 a7.5 7.5 0 1 0 -15 0zM1716.03 329.24 a7.5 7.5 0 1 0 15 0 a7.5 7.5 0 1 0 -15 0zM1716.03 404.24 a7.5 7.5 0 1 0 15 0 a7.5 7.5 0 1 0 -15 0zM1651.07 441.74 a7.5 7.5 0 1 0 15 0 a7.5 7.5 0 1 0 -15 0zM1586.12 404.24 a7.5 7.5 0 1 0 15 0 a7.5 7.5 0 1 0 -15 0zM1586.12 329.24 a7.5 7.5 0 1 0 15 0 a7.5 7.5 0 1 0 -15 0zM1651.07 516.74 a7.5 7.5 0 1 0 15 0 a7.5 7.5 0 1 0 -15 0zM1586.12 554.24 a7.5 7.5 0 1 0 15 0 a7.5 7.5 0 1 0 -15 0zM1716.03 554.24 a7.5 7.5 0 1 0 15 0 a7.5 7.5 0 1 0 -15 0zM1716.03 629.24 a7.5 7.5 0 1 0 15 0 a7.5 7.5 0 1 0 -15 0zM1651.07 666.74 a7.5 7.5 0 1 0 15 0 a7.5 7.5 0 1 0 -15 0zM1586.12 629.24 a7.5 7.5 0 1 0 15 0 a7.5 7.5 0 1 0 -15 0zM1651.07 1416.74 a7.5 7.5 0 1 0 15 0 a7.5 7.5 0 1 0 -15 0zM1716.03 1454.24 a7.5 7.5 0 1 0 15 0 a7.5 7.5 0 1 0 -15 0zM1716.03 1529.24 a7.5 7.5 0 1 0 15 0 a7.5 7.5 0 1 0 -15 0zM1651.07 1566.74 a7.5 7.5 0 1 0 15 0 a7.5 7.5 0 1 0 -15 0zM1586.12 1529.24 a7.5 7.5 0 1 0 15 0 a7.5 7.5 0 1 0 -15 0zM1586.12 1454.24 a7.5 7.5 0 1 0 15 0 a7.5 7.5 0 1 0 -15 0zM1651.07 1641.74 a7.5 7.5 0 1 0 15 0 a7.5 7.5 0 1 0 -15 0zM1716.03 1679.24 a7.5 7.5 0 1 0 15 0 a7.5 7.5 0 1 0 -15 0zM1716.03 1754.24 a7.5 7.5 0 1 0 15 0 a7.5 7.5 0 1 0 -15 0zM1651.07 1791.74 a7.5 7.5 0 1 0 15 0 a7.5 7.5 0 1 0 -15 0zM1651.07 1866.74 a7.5 7.5 0 1 0 15 0 a7.5 7.5 0 1 0 -15 0zM1586.12 1904.24 a7.5 7.5 0 1 0 15 0 a7.5 7.5 0 1 0 -15 0zM1521.17 1866.74 a7.5 7.5 0 1 0 15 0 a7.5 7.5 0 1 0 -15 0zM1651.07 2316.74 a7.5 7.5 0 1 0 15 0 a7.5 7.5 0 1 0 -15 0zM1716.03 2354.24 a7.5 7.5 0 1 0 15 0 a7.5 7.5 0 1 0 -15 0zM1716.03 2429.24 a7.5 7.5 0 1 0 15 0 a7.5 7.5 0 1 0 -15 0zM1651.07 2466.74 a7.5 7.5 0 1 0 15 0 a7.5 7.5 0 1 0 -15 0zM1651.07 2541.74 a7.5 7.5 0 1 0 15 0 a7.5 7.5 0 1 0 -15 0zM1716.03 2579.24 a7.5 7.5 0 1 0 15 0 a7.5 7.5 0 1 0 -15 0zM1716.03 2654.24 a7.5 7.5 0 1 0 15 0 a7.5 7.5 0 1 0 -15 0zM1651.07 2691.74 a7.5 7.5 0 1 0 15 0 a7.5 7.5 0 1 0 -15 0zM1780.98 216.74 a7.5 7.5 0 1 0 15 0 a7.5 7.5 0 1 0 -15 0zM1780.98 291.74 a7.5 7.5 0 1 0 15 0 a7.5 7.5 0 1 0 -15 0zM1845.93 329.24 a7.5 7.5 0 1 0 15 0 a7.5 7.5 0 1 0 -15 0zM1845.93 404.24 a7.5 7.5 0 1 0 15 0 a7.5 7.5 0 1 0 -15 0zM1780.98 441.74 a7.5 7.5 0 1 0 15 0 a7.5 7.5 0 1 0 -15 0zM1780.98 516.74 a7.5 7.5 0 1 0 15 0 a7.5 7.5 0 1 0 -15 0zM1845.93 554.24 a7.5 7.5 0 1 0 15 0 a7.5 7.5 0 1 0 -15 0zM1845.93 629.24 a7.5 7.5 0 1 0 15 0 a7.5 7.5 0 1 0 -15 0zM1780.98 666.74 a7.5 7.5 0 1 0 15 0 a7.5 7.5 0 1 0 -15 0zM1716.03 1079.24 a7.5 7.5 0 1 0 15 0 a7.5 7.5 0 1 0 -15 0zM1780.98 1116.74 a7.5 7.5 0 1 0 15 0 a7.5 7.5 0 1 0 -15 0zM1780.98 1191.74 a7.5 7.5 0 1 0 15 0 a7.5 7.5 0 1 0 -15 0zM1716.03 1229.24 a7.5 7.5 0 1 0 15 0 a7.5 7.5 0 1 0 -15 0zM1651.07 1191.74 a7.5 7.5 0 1 0 15 0 a7.5 7.5 0 1 0 -15 0zM1651.07 1116.74 a7.5 7.5 0 1 0 15 0 a7.5 7.5 0 1 0 -15 0zM1780.98 1416.74 a7.5 7.5 0 1 0 15 0 a7.5 7.5 0 1 0 -15 0zM1845.93 1454.24 a7.5 7.5 0 1 0 15 0 a7.5 7.5 0 1 0 -15 0zM1845.93 1529.24 a7.5 7.5 0 1 0 15 0 a7.5 7.5 0 1 0 -15 0zM1780.98 1566.74 a7.5 7.5 0 1 0 15 0 a7.5 7.5 0 1 0 -15 0zM1780.98 1641.74 a7.5 7.5 0 1 0 15 0 a7.5 7.5 0 1 0 -15 0zM1780.98 1791.74 a7.5 7.5 0 1 0 15 0 a7.5 7.5 0 1 0 -15 0zM1780.98 1866.74 a7.5 7.5 0 1 0 15 0 a7.5 7.5 0 1 0 -15 0zM1716.03 1904.24 a7.5 7.5 0 1 0 15 0 a7.5 7.5 0 1 0 -15 0zM1845.93 1904.24 a7.5 7.5 0 1 0 15 0 a7.5 7.5 0 1 0 -15 0zM1845.93 1979.24 a7.5 7.5 0 1 0 15 0 a7.5 7.5 0 1 0 -15 0zM1780.98 2016.74 a7.5 7.5 0 1 0 15 0 a7.5 7.5 0 1 0 -15 0zM1716.03 1979.24 a7.5 7.5 0 1 0 15 0 a7.5 7.5 0 1 0 -15 0zM1780.98 2541.74 a7.5 7.5 0 1 0 15 0 a7.5 7.5 0 1 0 -15 0zM1845.93 2579.24 a7.5 7.5 0 1 0 15 0 a7.5 7.5 0 1 0 -15 0zM1845.93 2654.24 a7.5 7.5 0 1 0 15 0 a7.5 7.5 0 1 0 -15 0zM1780.98 2691.74 a7.5 7.5 0 1 0 15 0 a7.5 7.5 0 1 0 -15 0zM1910.89 2016.74 a7.5 7.5 0 1 0 15 0 a7.5 7.5 0 1 0 -15 0zM1910.89 2091.74 a7.5 7.5 0 1 0 15 0 a7.5 7.5 0 1 0 -15 0zM1845.93 2129.24 a7.5 7.5 0 1 0 15 0 a7.5 7.5 0 1 0 -15 0zM1780.98 2091.74 a7.5 7.5 0 1 0 15 0 a7.5 7.5 0 1 0 -15 0zM1910.89 2316.74 a7.5 7.5 0 1 0 15 0 a7.5 7.5 0 1 0 -15 0zM1975.84 2354.24 a7.5 7.5 0 1 0 15 0 a7.5 7.5 0 1 0 -15 0zM1975.84 2429.24 a7.5 7.5 0 1 0 15 0 a7.5 7.5 0 1 0 -15 0zM1910.89 2466.74 a7.5 7.5 0 1 0 15 0 a7.5 7.5 0 1 0 -15 0zM1845.93 2429.24 a7.5 7.5 0 1 0 15 0 a7.5 7.5 0 1 0 -15 0zM1845.93 2354.24 a7.5 7.5 0 1 0 15 0 a7.5 7.5 0 1 0 -15 0zM1910.89 2541.74 a7.5 7.5 0 1 0 15 0 a7.5 7.5 0 1 0 -15 0zM1780.98 2466.74 a7.5 7.5 0 1 0 15 0 a7.5 7.5 0 1 0 -15 0zM2040.8 66.74 a7.5 7.5 0 1 0 15 0 a7.5 7.5 0 1 0 -15 0zM2105.75 104.24 a7.5 7.5 0 1 0 15 0 a7.5 7.5 0 1 0 -15 0zM2105.75 179.24 a7.5 7.5 0 1 0 15 0 a7.5 7.5 0 1 0 -15 0zM2040.8 216.74 a7.5 7.5 0 1 0 15 0 a7.5 7.5 0 1 0 -15 0zM1975.84 179.24 a7.5 7.5 0 1 0 15 0 a7.5 7.5 0 1 0 -15 0zM1975.84 104.24 a7.5 7.5 0 1 0 15 0 a7.5 7.5 0 1 0 -15 0zM2040.8 291.74 a7.5 7.5 0 1 0 15 0 a7.5 7.5 0 1 0 -15 0zM2105.75 329.24 a7.5 7.5 0 1 0 15 0 a7.5 7.5 0 1 0 -15 0zM2105.75 404.24 a7.5 7.5 0 1 0 15 0 a7.5 7.5 0 1 0 -15 0zM2040.8 441.74 a7.5 7.5 0 1 0 15 0 a7.5 7.5 0 1 0 -15 0zM1975.84 404.24 a7.5 7.5 0 1 0 15 0 a7.5 7.5 0 1 0 -15 0zM1975.84 329.24 a7.5 7.5 0 1 0 15 0 a7.5 7.5 0 1 0 -15 0zM2040.8 516.74 a7.5 7.5 0 1 0 15 0 a7.5 7.5 0 1 0 -15 0zM1975.84 554.24 a7.5 7.5 0 1 0 15 0 a7.5 7.5 0 1 0 -15 0zM1910.89 516.74 a7.5 7.5 0 1 0 15 0 a7.5 7.5 0 1 0 -15 0zM1910.89 441.74 a7.5 7.5 0 1 0 15 0 a7.5 7.5 0 1 0 -15 0zM1975.84 629.24 a7.5 7.5 0 1 0 15 0 a7.5 7.5 0 1 0 -15 0zM2040.8 666.74 a7.5 7.5 0 1 0 15 0 a7.5 7.5 0 1 0 -15 0zM2040.8 741.74 a7.5 7.5 0 1 0 15 0 a7.5 7.5 0 1 0 -15 0zM1975.84 779.24 a7.5 7.5 0 1 0 15 0 a7.5 7.5 0 1 0 -15 0zM1910.89 741.74 a7.5 7.5 0 1 0 15 0 a7.5 7.5 0 1 0 -15 0zM1910.89 666.74 a7.5 7.5 0 1 0 15 0 a7.5 7.5 0 1 0 -15 0zM1975.84 2204.24 a7.5 7.5 0 1 0 15 0 a7.5 7.5 0 1 0 -15 0zM2040.8 2241.74 a7.5 7.5 0 1 0 15 0 a7.5 7.5 0 1 0 -15 0zM2040.8 2316.74 a7.5 7.5 0 1 0 15 0 a7.5 7.5 0 1 0 -15 0zM1910.89 2241.74 a7.5 7.5 0 1 0 15 0 a7.5 7.5 0 1 0 -15 0zM2105.75 -45.76 a7.5 7.5 0 1 0 15 0 a7.5 7.5 0 1 0 -15 0zM2170.7 -8.26 a7.5 7.5 0 1 0 15 0 a7.5 7.5 0 1 0 -15 0zM2170.7 66.74 a7.5 7.5 0 1 0 15 0 a7.5 7.5 0 1 0 -15 0zM2040.8 -8.26 a7.5 7.5 0 1 0 15 0 a7.5 7.5 0 1 0 -15 0zM2170.7 291.74 a7.5 7.5 0 1 0 15 0 a7.5 7.5 0 1 0 -15 0zM2235.66 329.24 a7.5 7.5 0 1 0 15 0 a7.5 7.5 0 1 0 -15 0zM2235.66 404.24 a7.5 7.5 0 1 0 15 0 a7.5 7.5 0 1 0 -15 0zM2170.7 441.74 a7.5 7.5 0 1 0 15 0 a7.5 7.5 0 1 0 -15 0zM2170.7 516.74 a7.5 7.5 0 1 0 15 0 a7.5 7.5 0 1 0 -15 0zM2105.75 554.24 a7.5 7.5 0 1 0 15 0 a7.5 7.5 0 1 0 -15 0zM2105.75 854.24 a7.5 7.5 0 1 0 15 0 a7.5 7.5 0 1 0 -15 0zM2170.7 891.74 a7.5 7.5 0 1 0 15 0 a7.5 7.5 0 1 0 -15 0zM2170.7 966.74 a7.5 7.5 0 1 0 15 0 a7.5 7.5 0 1 0 -15 0zM2105.75 1004.24 a7.5 7.5 0 1 0 15 0 a7.5 7.5 0 1 0 -15 0zM2040.8 966.74 a7.5 7.5 0 1 0 15 0 a7.5 7.5 0 1 0 -15 0zM2040.8 891.74 a7.5 7.5 0 1 0 15 0 a7.5 7.5 0 1 0 -15 0zM2105.75 1079.24 a7.5 7.5 0 1 0 15 0 a7.5 7.5 0 1 0 -15 0zM2170.7 1116.74 a7.5 7.5 0 1 0 15 0 a7.5 7.5 0 1 0 -15 0zM2170.7 1191.74 a7.5 7.5 0 1 0 15 0 a7.5 7.5 0 1 0 -15 0zM2105.75 1229.24 a7.5 7.5 0 1 0 15 0 a7.5 7.5 0 1 0 -15 0zM2040.8 1191.74 a7.5 7.5 0 1 0 15 0 a7.5 7.5 0 1 0 -15 0zM2040.8 1116.74 a7.5 7.5 0 1 0 15 0 a7.5 7.5 0 1 0 -15 0zM2235.66 1229.24 a7.5 7.5 0 1 0 15 0 a7.5 7.5 0 1 0 -15 0zM2235.66 1304.24 a7.5 7.5 0 1 0 15 0 a7.5 7.5 0 1 0 -15 0zM2170.7 1341.74 a7.5 7.5 0 1 0 15 0 a7.5 7.5 0 1 0 -15 0zM2105.75 1304.24 a7.5 7.5 0 1 0 15 0 a7.5 7.5 0 1 0 -15 0zM2170.7 1416.74 a7.5 7.5 0 1 0 15 0 a7.5 7.5 0 1 0 -15 0zM2105.75 1454.24 a7.5 7.5 0 1 0 15 0 a7.5 7.5 0 1 0 -15 0zM2040.8 1416.74 a7.5 7.5 0 1 0 15 0 a7.5 7.5 0 1 0 -15 0zM2040.8 1341.74 a7.5 7.5 0 1 0 15 0 a7.5 7.5 0 1 0 -15 0zM2235.66 1454.24 a7.5 7.5 0 1 0 15 0 a7.5 7.5 0 1 0 -15 0zM2235.66 1529.24 a7.5 7.5 0 1 0 15 0 a7.5 7.5 0 1 0 -15 0zM2170.7 1566.74 a7.5 7.5 0 1 0 15 0 a7.5 7.5 0 1 0 -15 0zM2105.75 1529.24 a7.5 7.5 0 1 0 15 0 a7.5 7.5 0 1 0 -15 0zM2170.7 2316.74 a7.5 7.5 0 1 0 15 0 a7.5 7.5 0 1 0 -15 0zM2235.66 2354.24 a7.5 7.5 0 1 0 15 0 a7.5 7.5 0 1 0 -15 0zM2235.66 2429.24 a7.5 7.5 0 1 0 15 0 a7.5 7.5 0 1 0 -15 0zM2170.7 2466.74 a7.5 7.5 0 1 0 15 0 a7.5 7.5 0 1 0 -15 0zM2105.75 2429.24 a7.5 7.5 0 1 0 15 0 a7.5 7.5 0 1 0 -15 0zM2105.75 2354.24 a7.5 7.5 0 1 0 15 0 a7.5 7.5 0 1 0 -15 0zM2170.7 2541.74 a7.5 7.5 0 1 0 15 0 a7.5 7.5 0 1 0 -15 0zM2105.75 2579.24 a7.5 7.5 0 1 0 15 0 a7.5 7.5 0 1 0 -15 0zM2040.8 2541.74 a7.5 7.5 0 1 0 15 0 a7.5 7.5 0 1 0 -15 0zM2040.8 2466.74 a7.5 7.5 0 1 0 15 0 a7.5 7.5 0 1 0 -15 0zM2235.66 -45.76 a7.5 7.5 0 1 0 15 0 a7.5 7.5 0 1 0 -15 0zM2300.61 -8.26 a7.5 7.5 0 1 0 15 0 a7.5 7.5 0 1 0 -15 0zM2300.61 66.74 a7.5 7.5 0 1 0 15 0 a7.5 7.5 0 1 0 -15 0zM2235.66 104.24 a7.5 7.5 0 1 0 15 0 a7.5 7.5 0 1 0 -15 0zM2235.66 179.24 a7.5 7.5 0 1 0 15 0 a7.5 7.5 0 1 0 -15 0zM2300.61 216.74 a7.5 7.5 0 1 0 15 0 a7.5 7.5 0 1 0 -15 0zM2300.61 291.74 a7.5 7.5 0 1 0 15 0 a7.5 7.5 0 1 0 -15 0zM2170.7 216.74 a7.5 7.5 0 1 0 15 0 a7.5 7.5 0 1 0 -15 0zM2235.66 629.24 a7.5 7.5 0 1 0 15 0 a7.5 7.5 0 1 0 -15 0zM2300.61 666.74 a7.5 7.5 0 1 0 15 0 a7.5 7.5 0 1 0 -15 0zM2300.61 741.74 a7.5 7.5 0 1 0 15 0 a7.5 7.5 0 1 0 -15 0zM2235.66 779.24 a7.5 7.5 0 1 0 15 0 a7.5 7.5 0 1 0 -15 0zM2170.7 741.74 a7.5 7.5 0 1 0 15 0 a7.5 7.5 0 1 0 -15 0zM2170.7 666.74 a7.5 7.5 0 1 0 15 0 a7.5 7.5 0 1 0 -15 0zM2235.66 854.24 a7.5 7.5 0 1 0 15 0 a7.5 7.5 0 1 0 -15 0zM2300.61 891.74 a7.5 7.5 0 1 0 15 0 a7.5 7.5 0 1 0 -15 0zM2300.61 966.74 a7.5 7.5 0 1 0 15 0 a7.5 7.5 0 1 0 -15 0zM2235.66 1004.24 a7.5 7.5 0 1 0 15 0 a7.5 7.5 0 1 0 -15 0zM2365.57 1004.24 a7.5 7.5 0 1 0 15 0 a7.5 7.5 0 1 0 -15 0zM2365.57 1079.24 a7.5 7.5 0 1 0 15 0 a7.5 7.5 0 1 0 -15 0zM2300.61 1116.74 a7.5 7.5 0 1 0 15 0 a7.5 7.5 0 1 0 -15 0zM2235.66 1079.24 a7.5 7.5 0 1 0 15 0 a7.5 7.5 0 1 0 -15 0zM2300.61 1191.74 a7.5 7.5 0 1 0 15 0 a7.5 7.5 0 1 0 -15 0zM2300.61 1866.74 a7.5 7.5 0 1 0 15 0 a7.5 7.5 0 1 0 -15 0zM2365.57 1904.24 a7.5 7.5 0 1 0 15 0 a7.5 7.5 0 1 0 -15 0zM2365.57 1979.24 a7.5 7.5 0 1 0 15 0 a7.5 7.5 0 1 0 -15 0zM2300.61 2016.74 a7.5 7.5 0 1 0 15 0 a7.5 7.5 0 1 0 -15 0zM2235.66 1979.24 a7.5 7.5 0 1 0 15 0 a7.5 7.5 0 1 0 -15 0zM2235.66 1904.24 a7.5 7.5 0 1 0 15 0 a7.5 7.5 0 1 0 -15 0zM2300.61 2091.74 a7.5 7.5 0 1 0 15 0 a7.5 7.5 0 1 0 -15 0zM2365.57 2129.24 a7.5 7.5 0 1 0 15 0 a7.5 7.5 0 1 0 -15 0zM2365.57 2204.24 a7.5 7.5 0 1 0 15 0 a7.5 7.5 0 1 0 -15 0zM2300.61 2241.74 a7.5 7.5 0 1 0 15 0 a7.5 7.5 0 1 0 -15 0zM2235.66 2204.24 a7.5 7.5 0 1 0 15 0 a7.5 7.5 0 1 0 -15 0zM2235.66 2129.24 a7.5 7.5 0 1 0 15 0 a7.5 7.5 0 1 0 -15 0zM2300.61 2316.74 a7.5 7.5 0 1 0 15 0 a7.5 7.5 0 1 0 -15 0zM2365.57 2354.24 a7.5 7.5 0 1 0 15 0 a7.5 7.5 0 1 0 -15 0zM2365.57 2429.24 a7.5 7.5 0 1 0 15 0 a7.5 7.5 0 1 0 -15 0zM2300.61 2466.74 a7.5 7.5 0 1 0 15 0 a7.5 7.5 0 1 0 -15 0zM2300.61 2541.74 a7.5 7.5 0 1 0 15 0 a7.5 7.5 0 1 0 -15 0zM2235.66 2579.24 a7.5 7.5 0 1 0 15 0 a7.5 7.5 0 1 0 -15 0zM2365.57 -45.76 a7.5 7.5 0 1 0 15 0 a7.5 7.5 0 1 0 -15 0zM2430.52 -8.26 a7.5 7.5 0 1 0 15 0 a7.5 7.5 0 1 0 -15 0zM2430.52 66.74 a7.5 7.5 0 1 0 15 0 a7.5 7.5 0 1 0 -15 0zM2365.57 104.24 a7.5 7.5 0 1 0 15 0 a7.5 7.5 0 1 0 -15 0zM2365.57 404.24 a7.5 7.5 0 1 0 15 0 a7.5 7.5 0 1 0 -15 0zM2430.52 441.74 a7.5 7.5 0 1 0 15 0 a7.5 7.5 0 1 0 -15 0zM2430.52 516.74 a7.5 7.5 0 1 0 15 0 a7.5 7.5 0 1 0 -15 0zM2365.57 554.24 a7.5 7.5 0 1 0 15 0 a7.5 7.5 0 1 0 -15 0zM2300.61 516.74 a7.5 7.5 0 1 0 15 0 a7.5 7.5 0 1 0 -15 0zM2300.61 441.74 a7.5 7.5 0 1 0 15 0 a7.5 7.5 0 1 0 -15 0zM2365.57 629.24 a7.5 7.5 0 1 0 15 0 a7.5 7.5 0 1 0 -15 0zM2430.52 666.74 a7.5 7.5 0 1 0 15 0 a7.5 7.5 0 1 0 -15 0zM2430.52 741.74 a7.5 7.5 0 1 0 15 0 a7.5 7.5 0 1 0 -15 0zM2365.57 779.24 a7.5 7.5 0 1 0 15 0 a7.5 7.5 0 1 0 -15 0zM2495.47 779.24 a7.5 7.5 0 1 0 15 0 a7.5 7.5 0 1 0 -15 0zM2495.47 854.24 a7.5 7.5 0 1 0 15 0 a7.5 7.5 0 1 0 -15 0zM2430.52 891.74 a7.5 7.5 0 1 0 15 0 a7.5 7.5 0 1 0 -15 0zM2365.57 854.24 a7.5 7.5 0 1 0 15 0 a7.5 7.5 0 1 0 -15 0zM2430.52 966.74 a7.5 7.5 0 1 0 15 0 a7.5 7.5 0 1 0 -15 0zM2365.57 1304.24 a7.5 7.5 0 1 0 15 0 a7.5 7.5 0 1 0 -15 0zM2430.52 1341.74 a7.5 7.5 0 1 0 15 0 a7.5 7.5 0 1 0 -15 0zM2430.52 1416.74 a7.5 7.5 0 1 0 15 0 a7.5 7.5 0 1 0 -15 0zM2365.57 1454.24 a7.5 7.5 0 1 0 15 0 a7.5 7.5 0 1 0 -15 0zM2300.61 1416.74 a7.5 7.5 0 1 0 15 0 a7.5 7.5 0 1 0 -15 0zM2300.61 1341.74 a7.5 7.5 0 1 0 15 0 a7.5 7.5 0 1 0 -15 0zM2430.52 2016.74 a7.5 7.5 0 1 0 15 0 a7.5 7.5 0 1 0 -15 0zM2430.52 2091.74 a7.5 7.5 0 1 0 15 0 a7.5 7.5 0 1 0 -15 0zM2430.52 2316.74 a7.5 7.5 0 1 0 15 0 a7.5 7.5 0 1 0 -15 0zM2495.47 2354.24 a7.5 7.5 0 1 0 15 0 a7.5 7.5 0 1 0 -15 0zM2495.47 2429.24 a7.5 7.5 0 1 0 15 0 a7.5 7.5 0 1 0 -15 0zM2430.52 2466.74 a7.5 7.5 0 1 0 15 0 a7.5 7.5 0 1 0 -15 0zM2495.47 404.24 a7.5 7.5 0 1 0 15 0 a7.5 7.5 0 1 0 -15 0zM2560.43 441.74 a7.5 7.5 0 1 0 15 0 a7.5 7.5 0 1 0 -15 0zM2560.43 516.74 a7.5 7.5 0 1 0 15 0 a7.5 7.5 0 1 0 -15 0zM2495.47 554.24 a7.5 7.5 0 1 0 15 0 a7.5 7.5 0 1 0 -15 0zM2495.47 629.24 a7.5 7.5 0 1 0 15 0 a7.5 7.5 0 1 0 -15 0zM2560.43 666.74 a7.5 7.5 0 1 0 15 0 a7.5 7.5 0 1 0 -15 0zM2560.43 741.74 a7.5 7.5 0 1 0 15 0 a7.5 7.5 0 1 0 -15 0zM2560.43 891.74 a7.5 7.5 0 1 0 15 0 a7.5 7.5 0 1 0 -15 0zM2560.43 966.74 a7.5 7.5 0 1 0 15 0 a7.5 7.5 0 1 0 -15 0zM2495.47 1004.24 a7.5 7.5 0 1 0 15 0 a7.5 7.5 0 1 0 -15 0zM2495.47 1079.24 a7.5 7.5 0 1 0 15 0 a7.5 7.5 0 1 0 -15 0zM2560.43 1116.74 a7.5 7.5 0 1 0 15 0 a7.5 7.5 0 1 0 -15 0zM2560.43 1191.74 a7.5 7.5 0 1 0 15 0 a7.5 7.5 0 1 0 -15 0zM2495.47 1229.24 a7.5 7.5 0 1 0 15 0 a7.5 7.5 0 1 0 -15 0zM2430.52 1191.74 a7.5 7.5 0 1 0 15 0 a7.5 7.5 0 1 0 -15 0zM2430.52 1116.74 a7.5 7.5 0 1 0 15 0 a7.5 7.5 0 1 0 -15 0zM2495.47 1529.24 a7.5 7.5 0 1 0 15 0 a7.5 7.5 0 1 0 -15 0zM2560.43 1566.74 a7.5 7.5 0 1 0 15 0 a7.5 7.5 0 1 0 -15 0zM2560.43 1641.74 a7.5 7.5 0 1 0 15 0 a7.5 7.5 0 1 0 -15 0zM2495.47 1679.24 a7.5 7.5 0 1 0 15 0 a7.5 7.5 0 1 0 -15 0zM2430.52 1641.74 a7.5 7.5 0 1 0 15 0 a7.5 7.5 0 1 0 -15 0zM2430.52 1566.74 a7.5 7.5 0 1 0 15 0 a7.5 7.5 0 1 0 -15 0zM2495.47 1754.24 a7.5 7.5 0 1 0 15 0 a7.5 7.5 0 1 0 -15 0zM2560.43 1791.74 a7.5 7.5 0 1 0 15 0 a7.5 7.5 0 1 0 -15 0zM2560.43 1866.74 a7.5 7.5 0 1 0 15 0 a7.5 7.5 0 1 0 -15 0zM2495.47 1904.24 a7.5 7.5 0 1 0 15 0 a7.5 7.5 0 1 0 -15 0zM2430.52 1866.74 a7.5 7.5 0 1 0 15 0 a7.5 7.5 0 1 0 -15 0zM2430.52 1791.74 a7.5 7.5 0 1 0 15 0 a7.5 7.5 0 1 0 -15 0zM2560.43 2091.74 a7.5 7.5 0 1 0 15 0 a7.5 7.5 0 1 0 -15 0zM2625.38 2129.24 a7.5 7.5 0 1 0 15 0 a7.5 7.5 0 1 0 -15 0zM2625.38 2204.24 a7.5 7.5 0 1 0 15 0 a7.5 7.5 0 1 0 -15 0zM2560.43 2241.74 a7.5 7.5 0 1 0 15 0 a7.5 7.5 0 1 0 -15 0zM2495.47 2204.24 a7.5 7.5 0 1 0 15 0 a7.5 7.5 0 1 0 -15 0zM2495.47 2129.24 a7.5 7.5 0 1 0 15 0 a7.5 7.5 0 1 0 -15 0z" fill="rgba(35, 35, 35, 1)"></path><path d="M42.78 938.23L112.06 978.23L112.06 1058.23L42.78 1098.23L-26.5 1058.23L-26.5 978.23zM112.06 1058.23L181.35 1098.23L181.35 1178.23L112.06 1218.23L42.78 1178.23L42.78 1098.23zM112.06 1298.23L181.35 1338.23L181.35 1418.23L112.06 1458.23L42.78 1418.23L42.78 1338.23zM42.78 1418.23L112.06 1458.23L112.06 1538.23L42.78 1578.23L-26.5 1538.23L-26.5 1458.23zM112.06 1778.23L181.35 1818.23L181.35 1898.23L112.06 1938.23L42.78 1898.23L42.78 1818.23zM42.78 1898.23L112.06 1938.23L112.06 2018.23L42.78 2058.23L-26.5 2018.23L-26.5 1938.23zM112.06 2018.23L181.35 2058.23L181.35 2138.23L112.06 2178.23L42.78 2138.23L42.78 2058.23zM42.78 2378.23L112.06 2418.23L112.06 2498.23L42.78 2538.23L-26.5 2498.23L-26.5 2418.23zM250.63 98.23L319.92 138.23L319.92 218.23L250.63 258.23L181.35 218.23L181.35 138.23zM181.35 458.23L250.63 498.23L250.63 578.23L181.35 618.23L112.06 578.23L112.06 498.23zM181.35 698.23L250.63 738.23L250.63 818.23L181.35 858.23L112.06 818.23L112.06 738.23zM181.35 938.23L250.63 978.23L250.63 1058.23L181.35 1098.23L112.06 1058.23L112.06 978.23zM181.35 1178.23L250.63 1218.23L250.63 1298.23L181.35 1338.23L112.06 1298.23L112.06 1218.23zM250.63 1538.23L319.92 1578.23L319.92 1658.23L250.63 1698.23L181.35 1658.23L181.35 1578.23zM181.35 1898.23L250.63 1938.23L250.63 2018.23L181.35 2058.23L112.06 2018.23L112.06 1938.23zM389.2 98.23L458.48 138.23L458.48 218.23L389.2 258.23L319.92 218.23L319.92 138.23zM319.92 218.23L389.2 258.23L389.2 338.23L319.92 378.23L250.63 338.23L250.63 258.23zM389.2 578.23L458.48 618.23L458.48 698.23L389.2 738.23L319.92 698.23L319.92 618.23zM389.2 818.23L458.48 858.23L458.48 938.23L389.2 978.23L319.92 938.23L319.92 858.23zM319.92 938.23L389.2 978.23L389.2 1058.23L319.92 1098.23L250.63 1058.23L250.63 978.23zM389.2 1298.23L458.48 1338.23L458.48 1418.23L389.2 1458.23L319.92 1418.23L319.92 1338.23zM389.2 1538.23L458.48 1578.23L458.48 1658.23L389.2 1698.23L319.92 1658.23L319.92 1578.23zM389.2 1778.23L458.48 1818.23L458.48 1898.23L389.2 1938.23L319.92 1898.23L319.92 1818.23zM319.92 1898.23L389.2 1938.23L389.2 2018.23L319.92 2058.23L250.63 2018.23L250.63 1938.23zM319.92 2138.23L389.2 2178.23L389.2 2258.23L319.92 2298.23L250.63 2258.23L250.63 2178.23zM458.48 -21.77L527.77 18.23L527.77 98.23L458.48 138.23L389.2 98.23L389.2 18.23zM527.77 578.23L597.05 618.23L597.05 698.23L527.77 738.23L458.48 698.23L458.48 618.23zM458.48 698.23L527.77 738.23L527.77 818.23L458.48 858.23L389.2 818.23L389.2 738.23zM527.77 1058.23L597.05 1098.23L597.05 1178.23L527.77 1218.23L458.48 1178.23L458.48 1098.23zM458.48 1178.23L527.77 1218.23L527.77 1298.23L458.48 1338.23L389.2 1298.23L389.2 1218.23zM527.77 1298.23L597.05 1338.23L597.05 1418.23L527.77 1458.23L458.48 1418.23L458.48 1338.23zM666.34 98.23L735.62 138.23L735.62 218.23L666.34 258.23L597.05 218.23L597.05 138.23zM597.05 218.23L666.34 258.23L666.34 338.23L597.05 378.23L527.77 338.23L527.77 258.23zM666.34 818.23L735.62 858.23L735.62 938.23L666.34 978.23L597.05 938.23L597.05 858.23zM597.05 1178.23L666.34 1218.23L666.34 1298.23L597.05 1338.23L527.77 1298.23L527.77 1218.23zM597.05 1418.23L666.34 1458.23L666.34 1538.23L597.05 1578.23L527.77 1538.23L527.77 1458.23zM666.34 2258.23L735.62 2298.23L735.62 2378.23L666.34 2418.23L597.05 2378.23L597.05 2298.23zM666.34 2498.23L735.62 2538.23L735.62 2618.23L666.34 2658.23L597.05 2618.23L597.05 2538.23zM804.9 338.23L874.19 378.23L874.19 458.23L804.9 498.23L735.62 458.23L735.62 378.23zM804.9 818.23L874.19 858.23L874.19 938.23L804.9 978.23L735.62 938.23L735.62 858.23zM735.62 938.23L804.9 978.23L804.9 1058.23L735.62 1098.23L666.34 1058.23L666.34 978.23zM735.62 1178.23L804.9 1218.23L804.9 1298.23L735.62 1338.23L666.34 1298.23L666.34 1218.23zM804.9 1778.23L874.19 1818.23L874.19 1898.23L804.9 1938.23L735.62 1898.23L735.62 1818.23zM735.62 2138.23L804.9 2178.23L804.9 2258.23L735.62 2298.23L666.34 2258.23L666.34 2178.23zM804.9 2498.23L874.19 2538.23L874.19 2618.23L804.9 2658.23L735.62 2618.23L735.62 2538.23zM943.47 338.23L1012.76 378.23L1012.76 458.23L943.47 498.23L874.19 458.23L874.19 378.23zM943.47 578.23L1012.76 618.23L1012.76 698.23L943.47 738.23L874.19 698.23L874.19 618.23zM943.47 1058.23L1012.76 1098.23L1012.76 1178.23L943.47 1218.23L874.19 1178.23L874.19 1098.23zM874.19 1418.23L943.47 1458.23L943.47 1538.23L874.19 1578.23L804.9 1538.23L804.9 1458.23zM943.47 1538.23L1012.76 1578.23L1012.76 1658.23L943.47 1698.23L874.19 1658.23L874.19 1578.23zM874.19 1658.23L943.47 1698.23L943.47 1778.23L874.19 1818.23L804.9 1778.23L804.9 1698.23zM874.19 2378.23L943.47 2418.23L943.47 2498.23L874.19 2538.23L804.9 2498.23L804.9 2418.23zM1012.76 458.23L1082.04 498.23L1082.04 578.23L1012.76 618.23L943.47 578.23L943.47 498.23zM1082.04 578.23L1151.32 618.23L1151.32 698.23L1082.04 738.23L1012.76 698.23L1012.76 618.23zM1012.76 698.23L1082.04 738.23L1082.04 818.23L1012.76 858.23L943.47 818.23L943.47 738.23zM1082.04 818.23L1151.32 858.23L1151.32 938.23L1082.04 978.23L1012.76 938.23L1012.76 858.23zM1082.04 1298.23L1151.32 1338.23L1151.32 1418.23L1082.04 1458.23L1012.76 1418.23L1012.76 1338.23zM1082.04 1538.23L1151.32 1578.23L1151.32 1658.23L1082.04 1698.23L1012.76 1658.23L1012.76 1578.23zM1012.76 1658.23L1082.04 1698.23L1082.04 1778.23L1012.76 1818.23L943.47 1778.23L943.47 1698.23zM1082.04 1778.23L1151.32 1818.23L1151.32 1898.23L1082.04 1938.23L1012.76 1898.23L1012.76 1818.23zM1082.04 2018.23L1151.32 2058.23L1151.32 2138.23L1082.04 2178.23L1012.76 2138.23L1012.76 2058.23zM1082.04 2258.23L1151.32 2298.23L1151.32 2378.23L1082.04 2418.23L1012.76 2378.23L1012.76 2298.23zM1151.32 698.23L1220.61 738.23L1220.61 818.23L1151.32 858.23L1082.04 818.23L1082.04 738.23zM1220.61 818.23L1289.89 858.23L1289.89 938.23L1220.61 978.23L1151.32 938.23L1151.32 858.23zM1151.32 938.23L1220.61 978.23L1220.61 1058.23L1151.32 1098.23L1082.04 1058.23L1082.04 978.23zM1220.61 1298.23L1289.89 1338.23L1289.89 1418.23L1220.61 1458.23L1151.32 1418.23L1151.32 1338.23zM1220.61 1538.23L1289.89 1578.23L1289.89 1658.23L1220.61 1698.23L1151.32 1658.23L1151.32 1578.23zM1151.32 1898.23L1220.61 1938.23L1220.61 2018.23L1151.32 2058.23L1082.04 2018.23L1082.04 1938.23zM1220.61 2498.23L1289.89 2538.23L1289.89 2618.23L1220.61 2658.23L1151.32 2618.23L1151.32 2538.23zM1359.18 338.23L1428.46 378.23L1428.46 458.23L1359.18 498.23L1289.89 458.23L1289.89 378.23zM1359.18 818.23L1428.46 858.23L1428.46 938.23L1359.18 978.23L1289.89 938.23L1289.89 858.23zM1359.18 1538.23L1428.46 1578.23L1428.46 1658.23L1359.18 1698.23L1289.89 1658.23L1289.89 1578.23zM1359.18 2018.23L1428.46 2058.23L1428.46 2138.23L1359.18 2178.23L1289.89 2138.23L1289.89 2058.23zM1289.89 2138.23L1359.18 2178.23L1359.18 2258.23L1289.89 2298.23L1220.61 2258.23L1220.61 2178.23zM1359.18 2498.23L1428.46 2538.23L1428.46 2618.23L1359.18 2658.23L1289.89 2618.23L1289.89 2538.23zM1428.46 -21.77L1497.74 18.23L1497.74 98.23L1428.46 138.23L1359.18 98.23L1359.18 18.23zM1428.46 458.23L1497.74 498.23L1497.74 578.23L1428.46 618.23L1359.18 578.23L1359.18 498.23zM1497.74 1058.23L1567.03 1098.23L1567.03 1178.23L1497.74 1218.23L1428.46 1178.23L1428.46 1098.23zM1428.46 1178.23L1497.74 1218.23L1497.74 1298.23L1428.46 1338.23L1359.18 1298.23L1359.18 1218.23zM1497.74 1298.23L1567.03 1338.23L1567.03 1418.23L1497.74 1458.23L1428.46 1418.23L1428.46 1338.23zM1428.46 1418.23L1497.74 1458.23L1497.74 1538.23L1428.46 1578.23L1359.18 1538.23L1359.18 1458.23zM1428.46 1898.23L1497.74 1938.23L1497.74 2018.23L1428.46 2058.23L1359.18 2018.23L1359.18 1938.23zM1497.74 2258.23L1567.03 2298.23L1567.03 2378.23L1497.74 2418.23L1428.46 2378.23L1428.46 2298.23zM1428.46 2378.23L1497.74 2418.23L1497.74 2498.23L1428.46 2538.23L1359.18 2498.23L1359.18 2418.23zM1636.31 338.23L1705.6 378.23L1705.6 458.23L1636.31 498.23L1567.03 458.23L1567.03 378.23zM1567.03 698.23L1636.31 738.23L1636.31 818.23L1567.03 858.23L1497.74 818.23L1497.74 738.23zM1636.31 1058.23L1705.6 1098.23L1705.6 1178.23L1636.31 1218.23L1567.03 1178.23L1567.03 1098.23zM1636.31 1538.23L1705.6 1578.23L1705.6 1658.23L1636.31 1698.23L1567.03 1658.23L1567.03 1578.23zM1567.03 1898.23L1636.31 1938.23L1636.31 2018.23L1567.03 2058.23L1497.74 2018.23L1497.74 1938.23zM1636.31 2018.23L1705.6 2058.23L1705.6 2138.23L1636.31 2178.23L1567.03 2138.23L1567.03 2058.23zM1567.03 2138.23L1636.31 2178.23L1636.31 2258.23L1567.03 2298.23L1497.74 2258.23L1497.74 2178.23zM1636.31 2258.23L1705.6 2298.23L1705.6 2378.23L1636.31 2418.23L1567.03 2378.23L1567.03 2298.23zM1705.6 -21.77L1774.88 18.23L1774.88 98.23L1705.6 138.23L1636.31 98.23L1636.31 18.23zM1774.88 98.23L1844.16 138.23L1844.16 218.23L1774.88 258.23L1705.6 218.23L1705.6 138.23zM1774.88 338.23L1844.16 378.23L1844.16 458.23L1774.88 498.23L1705.6 458.23L1705.6 378.23zM1705.6 698.23L1774.88 738.23L1774.88 818.23L1705.6 858.23L1636.31 818.23L1636.31 738.23zM1774.88 818.23L1844.16 858.23L1844.16 938.23L1774.88 978.23L1705.6 938.23L1705.6 858.23zM1705.6 1178.23L1774.88 1218.23L1774.88 1298.23L1705.6 1338.23L1636.31 1298.23L1636.31 1218.23zM1774.88 1298.23L1844.16 1338.23L1844.16 1418.23L1774.88 1458.23L1705.6 1418.23L1705.6 1338.23zM1705.6 1658.23L1774.88 1698.23L1774.88 1778.23L1705.6 1818.23L1636.31 1778.23L1636.31 1698.23zM1705.6 1898.23L1774.88 1938.23L1774.88 2018.23L1705.6 2058.23L1636.31 2018.23L1636.31 1938.23zM1844.16 218.23L1913.45 258.23L1913.45 338.23L1844.16 378.23L1774.88 338.23L1774.88 258.23zM1913.45 338.23L1982.73 378.23L1982.73 458.23L1913.45 498.23L1844.16 458.23L1844.16 378.23zM1844.16 458.23L1913.45 498.23L1913.45 578.23L1844.16 618.23L1774.88 578.23L1774.88 498.23zM1844.16 698.23L1913.45 738.23L1913.45 818.23L1844.16 858.23L1774.88 818.23L1774.88 738.23zM1913.45 1298.23L1982.73 1338.23L1982.73 1418.23L1913.45 1458.23L1844.16 1418.23L1844.16 1338.23zM1844.16 1418.23L1913.45 1458.23L1913.45 1538.23L1844.16 1578.23L1774.88 1538.23L1774.88 1458.23zM1844.16 2378.23L1913.45 2418.23L1913.45 2498.23L1844.16 2538.23L1774.88 2498.23L1774.88 2418.23zM2052.02 98.23L2121.3 138.23L2121.3 218.23L2052.02 258.23L1982.73 218.23L1982.73 138.23zM1982.73 218.23L2052.02 258.23L2052.02 338.23L1982.73 378.23L1913.45 338.23L1913.45 258.23zM1982.73 458.23L2052.02 498.23L2052.02 578.23L1982.73 618.23L1913.45 578.23L1913.45 498.23zM2052.02 818.23L2121.3 858.23L2121.3 938.23L2052.02 978.23L1982.73 938.23L1982.73 858.23zM1982.73 2378.23L2052.02 2418.23L2052.02 2498.23L1982.73 2538.23L1913.45 2498.23L1913.45 2418.23zM2121.3 -21.77L2190.58 18.23L2190.58 98.23L2121.3 138.23L2052.02 98.23L2052.02 18.23zM2190.58 98.23L2259.87 138.23L2259.87 218.23L2190.58 258.23L2121.3 218.23L2121.3 138.23zM2121.3 218.23L2190.58 258.23L2190.58 338.23L2121.3 378.23L2052.02 338.23L2052.02 258.23zM2121.3 458.23L2190.58 498.23L2190.58 578.23L2121.3 618.23L2052.02 578.23L2052.02 498.23zM2190.58 2018.23L2259.87 2058.23L2259.87 2138.23L2190.58 2178.23L2121.3 2138.23L2121.3 2058.23zM2121.3 2378.23L2190.58 2418.23L2190.58 2498.23L2121.3 2538.23L2052.02 2498.23L2052.02 2418.23zM2259.87 -21.77L2329.15 18.23L2329.15 98.23L2259.87 138.23L2190.58 98.23L2190.58 18.23zM2329.15 578.23L2398.44 618.23L2398.44 698.23L2329.15 738.23L2259.87 698.23L2259.87 618.23zM2329.15 818.23L2398.44 858.23L2398.44 938.23L2329.15 978.23L2259.87 938.23L2259.87 858.23zM2259.87 1178.23L2329.15 1218.23L2329.15 1298.23L2259.87 1338.23L2190.58 1298.23L2190.58 1218.23zM2259.87 1418.23L2329.15 1458.23L2329.15 1538.23L2259.87 1578.23L2190.58 1538.23L2190.58 1458.23zM2259.87 1658.23L2329.15 1698.23L2329.15 1778.23L2259.87 1818.23L2190.58 1778.23L2190.58 1698.23zM2329.15 1778.23L2398.44 1818.23L2398.44 1898.23L2329.15 1938.23L2259.87 1898.23L2259.87 1818.23zM2329.15 2258.23L2398.44 2298.23L2398.44 2378.23L2329.15 2418.23L2259.87 2378.23L2259.87 2298.23zM2329.15 2498.23L2398.44 2538.23L2398.44 2618.23L2329.15 2658.23L2259.87 2618.23L2259.87 2538.23zM2398.44 -21.77L2467.72 18.23L2467.72 98.23L2398.44 138.23L2329.15 98.23L2329.15 18.23zM2398.44 218.23L2467.72 258.23L2467.72 338.23L2398.44 378.23L2329.15 338.23L2329.15 258.23zM2398.44 938.23L2467.72 978.23L2467.72 1058.23L2398.44 1098.23L2329.15 1058.23L2329.15 978.23zM2398.44 1418.23L2467.72 1458.23L2467.72 1538.23L2398.44 1578.23L2329.15 1538.23L2329.15 1458.23zM2467.72 1538.23L2537 1578.23L2537 1658.23L2467.72 1698.23L2398.44 1658.23L2398.44 1578.23zM2398.44 1658.23L2467.72 1698.23L2467.72 1778.23L2398.44 1818.23L2329.15 1778.23L2329.15 1698.23zM2398.44 1898.23L2467.72 1938.23L2467.72 2018.23L2398.44 2058.23L2329.15 2018.23L2329.15 1938.23zM2398.44 2138.23L2467.72 2178.23L2467.72 2258.23L2398.44 2298.23L2329.15 2258.23L2329.15 2178.23zM2467.72 2258.23L2537 2298.23L2537 2378.23L2467.72 2418.23L2398.44 2378.23L2398.44 2298.23zM2398.44 2378.23L2467.72 2418.23L2467.72 2498.23L2398.44 2538.23L2329.15 2498.23L2329.15 2418.23zM2606.29 98.23L2675.57 138.23L2675.57 218.23L2606.29 258.23L2537 218.23L2537 138.23zM2537 218.23L2606.29 258.23L2606.29 338.23L2537 378.23L2467.72 338.23L2467.72 258.23zM2606.29 338.23L2675.57 378.23L2675.57 458.23L2606.29 498.23L2537 458.23L2537 378.23zM2537 1658.23L2606.29 1698.23L2606.29 1778.23L2537 1818.23L2467.72 1778.23L2467.72 1698.23zM2606.29 1778.23L2675.57 1818.23L2675.57 1898.23L2606.29 1938.23L2537 1898.23L2537 1818.23zM2537 1898.23L2606.29 1938.23L2606.29 2018.23L2537 2058.23L2467.72 2018.23L2467.72 1938.23z" stroke="rgba(35, 35, 35, 1)" stroke-width="2"></path></g><defs><mask id="SvgjsMask2538"><rect width="2560" height="2560" fill="#ffffff"></rect></mask><linearGradient x1="0%" y1="0%" x2="100%" y2="100%" gradientUnits="userSpaceOnUse" id="SvgjsLinearGradient2539"><stop stop-color="rgba(30, 30, 30, 1)" offset="0"></stop><stop stop-color="rgba(30, 30, 30, 1)" offset="1"></stop></linearGradient></defs></svg>